<mxfile host="app.diagrams.net" agent="Mozilla/5.0 (Windows NT 10.0; Win64; x64) AppleWebKit/537.36 (KHTML, like Gecko) Chrome/134.0.0.0 Safari/537.36 Edg/134.0.0.0" version="26.1.1">
  <diagram name="简介" id="UwlJFEx0l5zFL6ROE23R">
    <mxGraphModel dx="2436" dy="747" grid="0" gridSize="10" guides="1" tooltips="1" connect="1" arrows="1" fold="1" page="0" pageScale="1" pageWidth="827" pageHeight="1169" math="0" shadow="0">
      <root>
        <mxCell id="0" />
        <mxCell id="1" parent="0" />
        <mxCell id="2bUQal6zoLhHaRuRvt4y-3" style="edgeStyle=orthogonalEdgeStyle;rounded=1;orthogonalLoop=1;jettySize=auto;html=1;curved=0;strokeWidth=6;labelBackgroundColor=none;strokeColor=#E07A5F;fontColor=default;" edge="1" parent="1" source="2bUQal6zoLhHaRuRvt4y-1" target="2bUQal6zoLhHaRuRvt4y-2">
          <mxGeometry relative="1" as="geometry" />
        </mxCell>
        <mxCell id="2bUQal6zoLhHaRuRvt4y-13" style="edgeStyle=orthogonalEdgeStyle;shape=connector;curved=0;rounded=1;orthogonalLoop=1;jettySize=auto;html=1;strokeColor=#E07A5F;strokeWidth=6;align=center;verticalAlign=middle;fontFamily=Helvetica;fontSize=11;fontColor=default;labelBackgroundColor=none;endArrow=classic;" edge="1" parent="1" source="2bUQal6zoLhHaRuRvt4y-1" target="2bUQal6zoLhHaRuRvt4y-12">
          <mxGeometry relative="1" as="geometry" />
        </mxCell>
        <mxCell id="2bUQal6zoLhHaRuRvt4y-1" value="" style="shape=image;verticalLabelPosition=bottom;labelBackgroundColor=none;verticalAlign=top;aspect=fixed;imageAspect=0;image=data:image/png,iVBORw0KGgoAAAANSUhEUgAAAOUAAABPCAYAAAAUTgKeAAAAAXNSR0IArs4c6QAAAARnQU1BAACxjwv8YQUAAAAJcEhZcwAADsMAAA7DAcdvqGQAABdDSURBVHhe7Z1rWBTXGcf/iEEgQgiXsEi9RFDECEF48ihqoiKhKk3ralRSJF4w3FwxgFaIMSUa1JgQsIIsVGIQE4UihHorBNGGRtBGUgyJ2ICiBC9QjRdUkJXTL+w8O2dmll3YXRYzv+d5P8z/fc9cdvedM/vOmTMmhBACERERo2EQLYiIiPQvYlKKiBgZYlKKiBgZYlKKiBgZYlKKiBgZYlKKiBgZYlKKiBgZYlKKiBgZYlKKiBgZYlKKiBgZYlKKiBgZYlKKiBgZYlKKiBgZYlKKiBgZYlKKiBgZYlKKiBgZYlKKiBgZAyYp09PTIZVKIZVK8cc//pF2DxjWrl2L48eP03KP7N69G1KpFGvXrqVdIv1MaWkppFIpFi9eTLt6hclAmQ5k5cqVyM7OBgAMGTIECQkJjG/69OmYMWOGSrRhqaioQHl5OaysrBAbG0u7Wfj4+GD48OGYOHEi0H0s8fHxdBiH6Oho7Ny5E8OGDUNYWBgAIDIyEs899xwdqhdKSkpQVVUFR0dHRERE0G6N2bNnD65cucIsm5qa4t1332XFDCSOHDkCuVyOw4cPw9zcHA8fPqRDtIcMEEJDQwkAXlu8eDGpqqqimxiMLVu2EADE1taWFBUVkaKiItLS0kKHEUII8fb2Zu27paUlKSoqIvfv36dDWaxevZpz3Dt27CBNTU10qF6IjY0lAMioUaOYYywqKiKXL1+mQ9Uybdo01jEMHjyYFBUVkbt379KhA4LIyEjmWJ566inmc/n555/pUI0ZMJev6igpKWF60f7k1q1bzCV2TU0N7QYADBs2DEOHDmWWHzx4AKlUipaWFlacKteuXcPdu3dpGWvWrEFBQQFu3bpFu/RGY2Mjc4xSqRTl5eV0iFYoFApIpVI0NTXRrgFHZ2cn87kUFhbil19+oUM04olIyujoaGRlZdGyUXLo0CEsXLiQltUSFBSEnJwcWgYAxMTEYNu2bbQs0s9ER0fjo48+omWNGPBJmZuby/p/qSlpaWmwsbFh7OrVq3RIn5g3bx5sbGwQHh5Ou3jx9PTEkSNHaFktlZWVuH37NjZt2kS7BjTHjx9nfTe9KYxpwrlz51jbUdrvf/97OlRrPv30U7z33nu0rBEDPimffvppmJub07JakpKSkJKSgjt37jC2YMECVFZW0qEaERwcjA8//JCl3b9/H3fu3EFxcTGWL1/O8vFx7949dHZ20rJarKys8Mwzz2h9/MbMF198gZiYGNZ3ExMTgy+++IIO7TOPHz9mbUdpFRUVfU5MS0vLXn8vequ+pqam4tKlS7Tca44fP44ffviBlhEYGAgXFxdaVktpaSnq6upoGa+99hpkMhkCAgJoV48cPXoUgYGBtAwA8PDwwLlz55jlsrIyyOVyHDx4kBUXGBgImUyG2bNnM9r69euxb98+picfPnw4c1skODgYdnZ2TGxf+OCDD9Da2krLDBUVFfjuu+9oGa+++irc3d1pWZCCggLeq5IlS5bA1tYWZ8+exTfffEO7MXXqVISFheHNN9+kXaioqEBBQQEt90hrayv2799PywAAc3NzpsqtioODA6taHBUVhYyMDFbMhg0bsHTpUowZM4ajt7W1MctOTk78lXe68qMLcnJyiKurK6daOBBs/vz5pLy8nD6kHqmpqSFBQUGc9QEgzs7OJDs7m3R1dTHxO3bs4MQBIImJiaz1Wltbs/w+Pj4sf1+4ceMGyc7OJtnZ2cTR0ZGzL8Zmb7zxBn0IhBBC0tLSOLH6sjFjxrC2rVp9VVpSUhK5ePEiK44QQp577jlW3IQJE+gQQvRVfY2KikJ9fT0tGz2urq5obGxESUkJ7eoRT09P/OUvf4G3tzcGDx7M8jU3NyM0NBRdXV0sXR0dHR2orq7G48ePGc3e3l6rXqknrl27hvT0dKSnp+P27du026hwdnbG888/T8tAd+/l7e3Na0JXUXZ2dpxYVXvxxRfpJhqzYcMGnDlzhlnu7OxEdXU15+/Jw4cPUV1dDc7FKp2lusDa2pqYmJiQQYMGEVNTU52YiYkJ54wEQKfbOHLkCH0ovcLBwYG1jyYmJsTU1JQoFAomhq+nHDRoENm0aRMhhJCLFy9y/KGhoSpbEUahULB6ZU1wc3PjfB6qpovPn26rNDqOz7Zv307vskYUFxdztgeALFu2jA5l8b///Y/TBhr2lKampiQvL4+JaW5u5j1+5e+is7OTtU699JR37tzBlClTsHPnTigUCp3YihUr6M0A3f9R6Nje2ty5c+nV64QJEyZAoVDA1NSUdrE4ePAgNm7cSMtaM2LECPzjH/+gZbXU1dVxPg9Vi4mJoZsAALKzszmxQqZ6f1aJmZkZJ47P1q1bRzc1Wmpra7Fo0SJmediwYVAoFJzRVy+88AIUCgXnykovSQkAe/fuRVBQEC33G11dXfDw8ICHhwcOHTpEuzXm3LlzzHoaGxtpt044fvw45syZw9ISEhLw/vvvszRVKisrmf1qaWlBVFSUUQyoeJIICAjA4cOHaVnn6C0pR48eDVtbW1o2OF9//TVCQkLw5ptvora2FrW1tdi2bVuvS+wPHjxg1rNmzRqcPn2aDtGIgIAAbNiwgVlOSUlBRUUFQkJCsHnzZly4cIEVX1ZWhvj4eM69r4yMDISEhGDjxo3MfikUCjQ2NiItLQ3p6emseF2TlZWFkJAQjay9vZ1urle+/PJLpKSk0DKWLFnCW1ntiWeeeQZjx46lZZ2jt1siNI8fP+b9gDTlb3/7G+vPs5KlS5diwoQJtMzw73//G/n5+bSM6dOnY9WqVVqPrqmqqoKvry+zvGTJEk5RIDExEffv32eWJRIJ4uLiWDEAcPHiRaac/s4776C4uJj3to8qv/nNb7BmzRpmef/+/aiurmbFqOLl5YXVq1cLXv5rSlxcHD755BNa7jNmZmbo6OigZZ2wefNmzkkM3SfAt99+m5ZZ3Lx5E/b29ixt4cKFnN8S3y2R8+fPY9y4cSwNABwdHVnDKSdMmIDvv/+eFQNAP4Uemtu3b5OjR49y/uj2t82aNYve1R6prKzkrMfYbdy4cfRhaI1yQLquzczMjN6Uzti0aRNnewBISkoKHcqBr9CzcOFCOoy30HP+/Hk6jJD+viVCc+HCBb0VUQzJw4cPeQcZW1pawsHBoV9syJAh9O4YFCsrK84+qbOnnnqKXoVBsbGxgYWFBdA9GL61tRWtra1QKBR0aP9BZ6k+OH36NOdsYgymbU8pl8s56wBAEhIS6FCDERwczNkf2vTZU+7Zs4cOVQv96Jahe8oTJ04w/urqakavqalhtX3ie0ovLy80NzejubkZrq6u2LVrF7Pcn5aXl0fvqtZkZGTwD5XqZ3Jzc5nj/Oc//0m7dUJJSQmr9D+QyM/Px29/+1tm2d/fH87Ozmor3IbCYIUeJePHj8eQIUMwbNgw+Pj4GOQJh4aGBkRHR9MyvLy8kJSURMu8pKenQy6Xo7a2lqXn5eUZ5Icpl8tx6NAhuLq6YseOHUB3kaG4uJgZS2pjY4PPP/8cAPDSSy/BwcGBtY6+wFfomTZtGqytrVlaT1RWVrL+Auir0JOUlIScnBz89NNPLH3SpEmws7PDzz//zBqPrOT5559HUFAQ4uLiOIUeiUQCb29vllZbW8uaSQEAXnnlFWzevBmvvPIKS9e00NMvSXn+/Hmg+7aJruY1UceNGzfw6aef0jJGjRqFlStXsm5N8CGXy5GVlcU7INsQSZmVlYW//vWv+PbbbyGRSJinTnbv3s0MInd1dYVMJmNVZnUJX1LqAn0l5YIFC1BYWEjLGjFq1CjMmzcPqamptEtj5s2bB3d3d7i5uUEqlWLbtm3YsWMHHjx4wMQYZVIaA/b29mqfjgCAKVOm8D7WNWfOHGzcuBE2Nja8Z11d8f777wt+ZpMnT8bIkSPh4eHR48mlL/yaktLR0RG+vr748ssvaZfWeHl5ITw8HJGRkbRLMCkNUuhRxd3dnfPHuD/N3t6e3kUOvr6+nHYASF1dHSEqc/T0h+3bt4/eXb0gVOiRSCTEzc1NY7OwsGC176nQU19fT+rq6khdXR25evUq7ealoaGBBAQEcPYVABk+fDhxc3MjEomE4wNAnn32WbJ06VLeQo+VlRXneGxsbDhxmppQoUdMSjEpNUIoKfVdfVVNHqFHt2hcXFw4+6k0ZfV1z549HB8AEhsbS0gfq6+amlBSGqT6qg6JRIKHDx/2aMuWLaObAgAOHDjAiaWN79ITAGbOnKnRhE0nT57EW2+9hZUrV7LWqxxytW7dOhQVFTHxV65c4eyDpqbPS1Bj5NGjR7CwsOA8dH7jxg1YWFjgxo0bjJafnw8LCwtYWFhwHoPSBbt372bmO7K1teV8N/v27aObCLJ3715Oe00Lb/3+n9LJyYn3SXQa1XlfVSksLIRUKqVlFt999x2nagYAs2bNQllZGS3zopxFQeiZvtu3bzM/LB8fn17fJE9MTBQsy7/22mt45513WJqrqyunSqgJhYWFWk3sdPnyZVy7do2W4eLiovGPDQB++OEH3Lt3j5bx4osvMjf10Z2s6oYPdnR0wMzMjJaB7s+koaGBllFaWopJkybB2toara2tOHbsGJYuXcr4c3JyeGc2UAffMDt0dxZ0EVNZfZXJZAgODoalpSU8PT1ZMQAM95+ys7OThIeHc67BnZyc6FBehOZ9LSwspEM5qN4kVjVtBw/ogwcPHpDw8HDGfHx8OPsZFxdH5HI5OXnyJN281+zatYuznYFkHR0d9CGR9vZ2Eh4ezpmtQWm3bt1ixdO/i5ycHMbX1tbG+l6OHj3KaqtE6PL1wIEDdCjJyckh7u7u5KOPPqJdLAx6+WpiYgITExNa1ogZM2Zg2rRptDxg+f777yGXy5GRkYHMzEzGzp49CwCwtrZGREQEY+Hh4Zg+fTq9micKf39/REREIDAwEJaWloiIiIClpSXQXWVW/Tz4nk3t7OxEZmYm7xy52tLe3s76XuRyOUpLS+kwrVDOPFFZWQm5XC48eIXOUn1DF3o07Snr6+t5iw1bt24lV65cocNZ0GdEpfVnT8k384DSbG1tyYIFC+gmgjQ3N5NTp04xxteL0Bw8eJD4+vpqbE5OTpz9VJqTkxN54YUXOLrSzM3NmfVYWVmxfCYmJoyvtLSUEEJIVVUV+d3vfkcIISQwMJD4+vqS3Nxc6gjY3L17l5SVlXG2rWolJSXkzp07TBv6d7Fx40Zy6dIlQgQKPX5+fqS6ulplq9r1lPQwu9GjR5NTp05xZono96SUSCTk/v37PdqyZcs4B660hIQETryqnTp1itMGRpyUUqmUDheko6ODJCUlsdo3NDSwph7pK+3t7byvTUB39XTdunWkvLyc41Oai4sLs65Zs2aRwYMHs9orv6fe7nNnZ2ePCak0obGvSlNXfYWG04FAw6RUmkGmA9GG69ev4+mnn+7RPvvsM7opw9atWznxqjZlyhS6yRPDihUrOBVbFxeXPl9qqTJ37lzs3LmTlgEAmZmZ2L59Oy0LUlZWxpqg+tGjR8z3RD+rqCmZmZnw9/en5QFLvyeliH5466234ObmJji3jqZMmjQJVVVVtAx0P9k/f/58WmYREBCAr776ipZ5iYuLg5ubG0JDQ2mXUTB79mzOyS4xMbHX47fHjBmDCxcucP4f9/stEV3w+uuvC44/PXHiBG/JGlrcEnn33Xfx3//+l5b7xE8//YT//Oc/tAx0T6eoae9++vRpzoBoVRYvXowDBw7QslrOnj3LzPheXFyMR48eMb6RI0cyt1JeffVV2NjYAN2fs5+fHxOnZMGCBZyJkmUymdppSiQSCV5++WWge9yvchtCpKenQyaTwdzcHHv37gUAJCcn807VcuLECcyYMQMnT57Eli1bOCeM2NhYJCcnazzzALp7avr1gOpuiSgRGmbX70k5dOjQPg+injlzJmbNmkXLAIDq6mrs2rWL9x6npkkpNPZ1IKBtUn7zzTfIzMxEbm4u7YKHhwfCwsIgk8lol06TUpX4+HgMHToUfn5+rGlYVKmqqsLhw4dhZmbGTP8hNPZVmZSfffYZ7+skflVJ2dXVhWPHjiEyMpI1ikbTwQN9oaGhgUn8r7/+Gi4uLnB2doaXlxc++OADOpzD2rVrOSNO+kpjY6PgfDwSiQQ+Pj60rBVnzpyBnZ0dli9fjj/96U+0m5fq6mqkpqbyJuT48eMRGhoq+FJcTZPy1KlT2LJli9YvM1q2bBlef/11ZnnOnDkYNEj435ehkrK2thaZmZlIS0tj6X1JSoNVX9vb2zlVJ3Nzc+Lt7U2H6hV/f39SUFBAywZHqPpqbW1NVq5cSYdrTUhICElLS6NlDl1dXaSpqYk0NTWRwMBAzv4o7b333mPi+Cw/P5/TBgCZO3cuK+6ll17ixPTGLl68qPbWz/z58zltAJD8/HzS1NREPvnkE44PPVRftRn7qkn1VWjsa78m5ezZs+mwXw1CSUm/S0TftLW1cfZhoNiZM2fow2EQSsqezBiSUrj/F3niOXPmDEaOHEnLQPes3spJpZRFF32TmZmJ1tZWziUiH1evXsXEiRNp+Ymg35IyKCgIW7dupWURA5CSkgJ/f3+sWrUKN2/eZPmCg4NRVlaGvLw82Nvbw97eHqmpqSgrK1NrH3/8MWs9Sl5++WVOrJD94Q9/gL29Pfz8/HgT08/Pj4mVSCSc6f6fGOiuUx9cvnyZrFmzhtV1x8fH02G/Kvrz8jUsLIyz3fj4eJKcnEz+9a9/0eEaITSiR5vhgqq0tbWR5ORklmnzAiahy9fIyEiSnJws+NpCXVy+rl+/nnnWVhWjuny9fv06M9mTSP8zefJkTJo0CQ4ODswrBd5++23ExsZi6tSpdLjBuXr1Ko4dO4bY2FiW9XXu4MWLF2P16tWIjY1FVFQU5yW/U6dOVVv1vnz5MnJzc5Gbm6t2nlhbW9u+zcdLZ6muuXnzJvn8889ZZ4gRI0aQ1NRUOvSJoqGhgdTU1Aja+vXrOWdYGKinJISQvLw8EhISQsu9Rlc9ZUtLC8nIyCB2dnasz6ulpYUOVQtfTyn06Janpyfx9PQkf//73xkfX0+paqdPnyY1NTVk0aJFHB8Asn37ds53bmtry4oR6in1npRZWVmcHd6/fz8d9sTh7+/POW5NzFBJqWt0lZTbtm3jrAMA+fDDD+lQtWialCYmJixNSU9JqQsTSkq9Xr7KZDLW4GMREXUEBwcjISGBlntFQUGB4AwOSiZOnMh7GVpeXq7VbAq6Rq8jelatWoVdu3axtIMHD2LmzJl49tlnWfqTRn19PTPtRX19veDYXJrExET8+c9/pmW9M2/ePLVjaHuira2NM/ExuieIFppChaaxsZH3XS3ovkXj6OiI0aNHc4btCXH9+nXWFCaenp6cwd983Lt3D99++y1nhJK/v7/aJ2IePXqEyZMn07IgQiN69JKUERER6OjoQFVVFWd42o8//gh3d3eW9qTzyy+/oLi4GKGhoczT53woX1nn5eVFu/TO2LFjeZPK2Bg/frzg8ERd0tHRgf3797O0kSNHYubMmSxNlcePH/MOUVQSHR3Nmp/IoEk5dOhQzvsZleMAExIS4OjoqBL96yE2NhZdXV346quv8OOPP7J8y5cvR0xMDDw8PFi6oRCa5t9YmDZtGnx8fCCRSIzy3S2aoOnYV70m5ZgxY+Ds7Ixx48YJPj71a2TFihXYs2cPS7t06RJGjRrF0gxNYmKi3l4G1FfCwsLwxhtv0PKAQjUpHR0dMXfuXN7Xaeg1KdPT0xEVFUW7f/XIZDLmRTxKampqMGLECJYm8mQxduxY5hUZixYtQmZmJh0CiEkpImJ86CUpr1y5AkIIbG1tYWVlRbtFRETUoJekFBER6T16HTwgIiKiPWJSiogYGWJSiogYGWJSiogYGWJSiogYGWJSiogYGWJSiogYGWJSiogYGWJSiogYGf8HB/McOcX8wfYAAAAASUVORK5CYII=;fillColor=#F2CC8F;strokeColor=#E07A5F;fontColor=#393C56;" vertex="1" parent="1">
          <mxGeometry x="525.004860026042" y="536.0029516601562" width="229" height="79" as="geometry" />
        </mxCell>
        <mxCell id="2bUQal6zoLhHaRuRvt4y-5" style="edgeStyle=orthogonalEdgeStyle;shape=connector;curved=0;rounded=1;orthogonalLoop=1;jettySize=auto;html=1;entryX=0.5;entryY=0;entryDx=0;entryDy=0;strokeColor=#E07A5F;strokeWidth=6;align=center;verticalAlign=middle;fontFamily=Helvetica;fontSize=11;fontColor=default;labelBackgroundColor=none;endArrow=classic;" edge="1" parent="1" source="2bUQal6zoLhHaRuRvt4y-2" target="2bUQal6zoLhHaRuRvt4y-4">
          <mxGeometry relative="1" as="geometry" />
        </mxCell>
        <mxCell id="2bUQal6zoLhHaRuRvt4y-7" style="edgeStyle=orthogonalEdgeStyle;shape=connector;curved=0;rounded=1;orthogonalLoop=1;jettySize=auto;html=1;strokeColor=#E07A5F;strokeWidth=6;align=center;verticalAlign=middle;fontFamily=Helvetica;fontSize=11;fontColor=default;labelBackgroundColor=none;endArrow=classic;" edge="1" parent="1" source="2bUQal6zoLhHaRuRvt4y-2" target="2bUQal6zoLhHaRuRvt4y-6">
          <mxGeometry relative="1" as="geometry" />
        </mxCell>
        <mxCell id="2bUQal6zoLhHaRuRvt4y-9" style="edgeStyle=orthogonalEdgeStyle;shape=connector;curved=0;rounded=1;orthogonalLoop=1;jettySize=auto;html=1;strokeColor=#E07A5F;strokeWidth=6;align=center;verticalAlign=middle;fontFamily=Helvetica;fontSize=11;fontColor=default;labelBackgroundColor=none;endArrow=classic;" edge="1" parent="1" source="2bUQal6zoLhHaRuRvt4y-2" target="2bUQal6zoLhHaRuRvt4y-8">
          <mxGeometry relative="1" as="geometry" />
        </mxCell>
        <mxCell id="2bUQal6zoLhHaRuRvt4y-11" style="edgeStyle=orthogonalEdgeStyle;shape=connector;curved=0;rounded=1;orthogonalLoop=1;jettySize=auto;html=1;strokeColor=#E07A5F;strokeWidth=6;align=center;verticalAlign=middle;fontFamily=Helvetica;fontSize=11;fontColor=default;labelBackgroundColor=none;endArrow=classic;" edge="1" parent="1" source="2bUQal6zoLhHaRuRvt4y-2" target="2bUQal6zoLhHaRuRvt4y-10">
          <mxGeometry relative="1" as="geometry" />
        </mxCell>
        <mxCell id="2bUQal6zoLhHaRuRvt4y-2" value="" style="shape=image;verticalLabelPosition=bottom;labelBackgroundColor=none;verticalAlign=top;aspect=fixed;imageAspect=0;image=data:image/png,iVBORw0KGgoAAAANSUhEUgAAALQAAAA4CAYAAABUv9KRAAAAAXNSR0IArs4c6QAAAARnQU1BAACxjwv8YQUAAAAJcEhZcwAADsMAAA7DAcdvqGQAABaDSURBVHhe7Z1/VBTXFce/7MqCyIoUN7iYWH5okLBIahOrNpIjUQRN3XOMqVpEQYGQRjDxRxqiEjVRk8aGetaceExPoyhoFGJUWtRq/IXGYISAEo2KAonAiQiylACLy+0fZaf73swsyw9/xO7nnPvH3nvfm+HN3dn37rszOBERwYGDhwQFr3Dg4OeMI6AdPFQ4AtrBQ4UjoB08VDgC2sFDhSOgHTxUOALawUOFI6AdPFQ4AtrBQ4UjoB08VDg5tr7FHDp0CL/+9a/h5eXFmxx0k4sXL+LatWvC58mTJ8PJyYnx6Q16PaAbGhrQ2NgofH700UcZ+4NKS0sLamtrAQAhISHYvHkzoqKi4O7uzrs66CK1tbVYtmwZNm/eLOgqKysxaNAgODs7M749hnqZRYsWEQBB2tvbeZcHkn379jHnDYDS09N5NwfdYMKECaKxBUDnzp3jXXuM7Bw6MjISGo1GkCFDhvAudvHII49Ao9Fgx44dvOmBZ/ny5UhOTubV95Ts7GzhGty5c4c324Ver2eupbe3N+8iy969ezF69GheLUl8fDzWrFnDq+8pslOO0aNH46uvvhI+u7m5oampifGRYvHixfjggw94NT755BPExsby6geG/fv3Y+rUqbwac+fOxZYtW3h1r1NQUIA333yT0SUmJqKtrQ2zZ88GAISHh3dr3llYWIj6+nrhs1KptPvLsWvXLsTFxWHMmDEAAIPBgKCgIN4NAHD+/Hm4ubkhICCA0U+cOBGHDx9mdABw7tw5jBw5klf3iHsS0K+99hrmz5+P4OBglJWV4aOPPhJscXFxCA4OZvx7SlFRETIzMxnd9OnTbd5ppAJar9cjKSkJkZGRgu4vf/kLqqurERYWJvKX4s0330RiYiIKCwtx+vRp3ixw/fp1fPbZZ4wuLCwM7u7u+Oc//8noe0pXA3rGjBnC51mzZsHHxwdjxozBCy+8wPhK8dZbb2HLli2orKzkTXcloCXn0JmZmRQQEMDMd1QqFWVkZFBDQwMREZWUlNCRI0f4pqI5NAAqLCwkIqJvv/2WUlNTGdurr75KGRkZdOzYMb4rgdraWsrIyLBb/vjHP4rOYd68eYI9KyuLP4Rdc+iMjAwaMmQIAaDIyEg6dOgQY7fGaDRSRkYGubi40IoVK+i5554T9X83xd3dnWJiYkilUolsSqWSP11Zzpw5Q3q9XtRHeHg45eXl8e4iBg4cKGprkdWrV9PVq1f5Jj0CxcXFxIvUIFhk//79VFxcTAsWLKCwsDBR2zlz5ojafPrpp1RcXEyvv/66yGaRadOm8ecmUFBQIPLvibi5uQnne/v2bSI7Arq9vV1kHzVqFJWWllqd6f+4fPmyyL83ZOjQoTRixAgaMWKE6KYDgLy9vWnEiBEUGRlJRERjx46lfv36MT5dCWgiokuXLomOA4BCQ0Pp/PnzvDsREZlMJiouLiZPT09RO2v5+9//zjftEeAPcL/kXga0tWRnZxN1M6ABkJeXl9WZ/o+7FdBff/21cIwTJ06I7G+99RZzHkREzz77LOPTWwENgPr27cu7ExHRDz/8IPKVkt4OaNksx71k5cqVyM7O5tU/a4YNGwaz2SySL7/8kncFOrJKvK/ZbMa2bdt41y7xi1/8AsePH+fVXSIwMBBmsxl9+/blTV0mJCQEZrMZCsV/Q2/+/Pl47bXXeLduoygsLISUhISEMI6urq4iHymxrMitycrKEvlZy0svvWRz9R4cHCxqk5KSwrsBAFJSUkS+FnnjjTcY37179+K5555jdHI4OTmhsLAQjz/+uKB7+umn8cUXXzB+1igUCpGEhITgzJkzjF9cXBw2btwo8jUYDFixYgXj21Xa29uZz8OHD8fZs2cZnT0oFAp8+eWXoriQIj8/n1lIW5gyZQp27doFhUKBr7/+GsOHDwcRITMzEwkJCbx79+Bv2RZ+85vfMD8Nbm5uvAsREd26dYvi4uIECQ4OFv2sWBaFvcl7770nOs6iRYuopKSEdxXYuHEj42+9IOlsymEhNDRUsIeHh/Nmu2hpaWGO88Ybb/AuRES0dOlS0Tl1dcrh4eHB2EeOHMnYu8ro0aOFvgICAigjI4N3odzcXNF5zZgxg44fP874jRw5UrAPGjRIiKGbN28yfl3B7inHnTt3sGHDBpEYDAZ88skngpSWlvJNe50DBw4gPz+f0cXHxyMhIcGuO4iFLVu24OrVq7z6gWbHjh3C2O/evZs346uvvmKuj8lk4l16xIwZM7Bw4UIsXLgQCxYsQExMDGM/e/Ys9u3bx+jQ8WsWFhbGqwVqamqEGPr3v//Nm+2Hj3AL/B26J9Lbd+hZs2aJjlFdXc27ieDv0OjCopCI6OjRo0xm4X7coXsqw4YNs5ki7Slr1qwRHTM0NJQ+/fRT3pUSEhJo0KBBIv+dO3d2+y5t9x3ayckJAwYMsCl9+vThm91zmpubcfv2bRiNRt4kon///nYXxxARxo8fj7KyMt70s+LKlSt2rxsAoK2tDbdv35YU6yI0AGhqakJzczOj8/DwwIYNG/D73/+e0QMQCsB4Zs6ciUOHDgnHsedaWrA7oPv27Yv6+nqb8uyzz/LN7jmrVq2Cp6enzV1BC4WFhXbt9v0/s2fPHnh6ekrKpEmTGN958+bhnXfeYXRXr17tVlxER0cLx/nVr37Fm2WxO6DtITMzE/Hx8bz6njF37lxs2rQJ6BhIX19f+Pr6ori4GKmpqUhLS+ObPDAcO3ZMOF9fX1+cPHmSdwE6tujLy8tRXl6OXbt28WYsXLhQsJeXl0OtVjN2nU4n+ytTV1fHnIOvry8WLFjAuwEdAWe9VR8eHo7c3FzGxx7ef/99lJeXY+fOnbxJoLKykjmnrVu38i7/g5+DWODn0EqlkvR6facitXvVm3PoBQsW0KOPPio6xqRJk+iRRx4R6QFQQUEBJSQkiPQTJkwQzpv/ewGQTqcT7FOnThXZuzqHPnDgAOn1enr++eeZfoYNG8ZkDwDQoUOHJOfQXc1y/OMf/yCdTifY5bIc33zzDUVGRor6k5OkpCQiImptbSW9Xk/u7u4iH3SUCHzzzTf84UQcO3ZM1FZOQkJCyGAw8F0QEZHdAd0T6c2AfuKJJ0T9dyZyAd1TsRXQtbW1lJaWxggfyLZk9uzZNHbsWJG+qwFN3E6hXECXlZXRn/70J1F/cpKUlESVlZWi2hwpiYmJobS0NMrJyeEPK1BeXk6rVq2iVatW0YABA0R98DJ//ny+C6LuBHRERARNmzZNVoYOHSpqYyugT58+TTk5OXTmzBneJMnPJaAflK3vffv2MXsDcgFNRNTQ0CC6ntOmTaOJEyeKjpOUlESnT58W6QMDAyW/iOgIbDlu3rxJOTk5lJOTQzExMaTVakXtLRIaGkoffvgh3wVRdwL68uXLvCuDrWo7C2azmcrKyqisrEx4mmHSpElUUVHB+EnBB7RSqSR/f39B+G+3n58fFRcXU2pqKvn7+5OPjw8pFAqmjb+/v2T6CACp1WrBh7fZCujr16+Tv78/OTk5kY+Pj9DH4MGDRf2gY+OKPyd/f3/RNOrzzz8Xxm7nzp2iflJSUgR7WVkZqdVqxh4cHExlZWX86dpEqpbjD3/4A2VnZzM6b29vWr9+veTGipeXFy1atIjvmn788UcqKyujrKwswff48eM0e/Zs0VhYZOvWrXw3AvcloOvq6kQ+6Nh56gw+oL29vRk7/7PZ2trK2PPz88nd3Z3RkUweGgDNnTuXSKY4yVZAW+jXrx+dOnVK+HzmzBlRPwAoKiqKaWdh+/btIt+eSm8WJ1mLJdcsFdDr16/nuyUiori4OJEvOr643QFqtZqkRKlUig4CgPr16yfytRap0lO+jdwCQqFQkFqtpsbGRv48yWQykVqtJoVCwbTpakDfuXOHjEYjoyOZgF63bh01NzcLPkajkXQ6HW3atImMRiM1NTUxfUhhNBrpzp07wmepgF60aBH99NNPTDsiouXLl5Orq6vIv6fSmwHdt29fMhqNZDQaqa2tjcjOgPbw8CC1Wk3Ozs4iX/QgoBWNjY2QErPZzCdEgI7kOe9rLVJbrXwbua3N9vZ2NDY2QuYhGjQ2NoqKberr6xEWFoa6ujpGL8WePXuQkpIiSmXJ4erqCldXV+GzWq2GUqnEBx98gClTpogemZLC0sYWKpVKspKttbUVLS0tvPqBQK/X48SJEzh8+DDUajXUarVdG2vXrl1DWFiY8HaAtrY23gXoeNKnO4++KV5++WUYDAbExcXxtruGm5sbDAaDrFgHETrykK+++iqjs2AymXDy5EnJL5I1lhqIPXv2IDk5GcnJycJrC7rK5cuXcfLkSeTk5Igq+O42S5cuFcZJakyioqKYseS/KI899hg2bNjA6LqDVqvFuHHjMHbsWN4kiWXcly9fLptjt+a3v/0tnnjiCV7dOZbqtIKCAoqPj6f4+HjZ6QYAevHFF8nPz0+kB0CTJ0+mkJAQkR4AhYWFCf2npKTwvxSyXLp0iZYtWybqjxdLLYfclEMqy7F27Vq6fv06kcyUg6/lIK7aDjYK/OW4du2aaN5oq5YjICBAGLf4+HgqLy8X7PZkOZKTkyk+Pp6Cg4Pp8ccfp9WrVzN2e5Cacljy0FJITTk6E61Wy/ydRUVFfLd2wSwKm5ub6ezZs5LzYIVCQU899RRVVFTQiy++KLI/+eSTVFBQQOnp6ZIBn5aWRpWVldaHs4uPP/5Y1JeUdCegQ0JChOci71VAk0RxUmxsLLPYLioqorNnz1JMTAxFR0czba2RCuiEhAS6cuUK43fp0iWaOXMmxcXFMXp7uHXrliibgU4COj8/XzROcuLr60tPPfUUJSYm8t10CyGgzWYznT9/XnRAAOTk5EQeHh5CI6mArq2tFezbtm2jPn36iHySk5PJZDKRyWQSfDvDOqCdnZ3J2dlZtDBENwO6p/XQTk5OokWpPfABjY60pWVsrFN1XQ1oAKTX6wUfk8lEYWFhhI6MTVfHf/fu3aJrqVQq6ZVXXmH82trayGQyCQtgqUewFAqFcA0tsmXLFqafniLUcuzevVu2lnjMmDG4ffs2r5Zl9uzZOHfuHK+GwWCASqXq0otOLDg7O8NkMsFkMjGP1d9Pxo8fj5qaGl7dLQ4ePAiVSgWVSoUff/yRN3cbjUaDEydOAAC2bt0quwCVY/r06bhw4QKj27hxIzZu3MjogoODoVKpbNbLREdHC9fQInPnzuXdeoTi5Zdfhk6nw5IlS3gb0FHQvX37dl7dI4xGI3Q6HXQ6HY4ePcqbGV544QWbhSteXl64cOECBg4cyJseSEpKSrpUPZabmyuMFS9z5szh3QEAX3zxheAjl1HqCatXr8bq1auBjncC6nQ6lJeXC/YTJ04gPDzcqsV/F7Pr1q1jdHcDRUVFBUpLS/HDDz/wNsyfPx+LFy+Gn58fWltbER0djejoaOYFNDyZmZmIjo5GamoqbxIwm80oLS1FaWkpVq5cKfRrEetUlaenJyZMmICMjAymDwtNTU1Yu3btXblwd4Pm5mZcvHiRVzN89NFHyMzMxPPPP4+GhgZhrHixDiJrGhsbBR+p9Gt7ezuio6Px/fff8ya7qK6uxvbt2xEdHY3Y2FiUlpYyWabGxkZcvnyZaePt7Y3Bgwczus7IyclBdHR0lx6i7WP9ilOe+vp6HD16FEePHkVbWxuysrJ4FwGDwQA3Nzfk5ubalZaxYPk5tGbTpk1M6s7LywszZ85kfCy0tLQgKysL/v7+UKvVNr9stggICEBSUpJQftrb/Otf/0JRUZFsEPn7+2P69OlAx5TN3d0dAwYMADru0gCwZMkS4WlpAPj+++9l3xno4eGBl156iVcz2PtwgxRXrlzBlStXGN3UqVMxbtw4yS9RdygpKRGubXp6Om+WhYYNG0YRERGCSC26ekN++ctf0tNPPy3SW8TNzY0iIiIkd82skXoES04si8L09HQKCgpibPxbeyoqKhh7Z4tCW1vfTU1NdPDgQUFsVdr5+fnRsmXL+C6IiOjIkSPCdbHecSSZRWFAQABFRETYLATqKlJpO16eeeYZ4SFYqbQdv1NoD2lpaQSA/P39eZMsQEc+1pohQ4aQt7e3rEhtx2o0GpEfL8uXL6dTp04xOhcXFwJALi4uNGrUKOY85OhOQJPEM4V3M6Dtqbbz8vIib29veuedd/jmdiEV0HweujewFdCWTI/1WN7PgJZ8YqWiogI1NTWy8rvf/Y5vgosXL4r8eHn77bcxduxYRmd5jGfKlCndni78XMnPz0dNTQ2WLVvGm342uLq6oqamRvTG0ftGVVWVZDGQLTrLQ3eFuro6qqqqorq6Ot4ki/UdWqPRUFVVlSCvvPIKc16WO/SSJUuof//+jE2j0VBubi4RER08eFBUqtm/f39auHAhUUe1nVarZXKyKpWKgoKCmHOzYOsOrVKpqKqqSijm6S5dvUPv2LGDtFotDR48mDfJsnfvXtJoNKLjWETqVWC9cYeOjY0VitiUSiVptVq74lSh1Wrv6b9dKCkpQVRUlCDfffcdtFotPD09eVe7UCgU0Gq1glj+liFDhiAvL08omGloaBA9PXzz5k2sWLECUVFRSE1NFeV/jUYjsrOzERUVhcmTJ6O6upp5DW1QUBAMBgPTpjMCAwOxf/9+aLVau4p5eotNmzZhzZo1qK6uRlVVFaKiomSzJNa0tLTg5s2bvBpTpkxBXl4e9u7dy5swatQo0SvM/va3v+H9999ndLaor68XMldmsxnV1dWiwjQp7t2IAjh16hQ+/PBDHDhwQND169cPQ4cOhU6nk3yNGE96ejqKi4t5tUBkZCQ8PT3h5eUl+ToqnqKiIl7FcOPGDdy4cYNXAx3ZF7lXAgwcOBDvvvsu0tLSYDKZoNfrMWbMGGi1WkRERDC+x44dY8bEXqRSrYcPH5as0Dty5IiwQUJEOHDgAN5++21oNBqEhYVh8uTJfBObPPbYY7Ljq9FoMH78eEZ36dIlbN26Fbdu3RJ0KSkp8PHxYfwA4L333sO3337Lq7Fy5UqkpKTA19eXNwk47dixg3hlZ/z1r38VzXc3b97caVlmXl6ebD552rRpyMnJ4dUili5dit27d8PNzQ2hoaEYMGAA8wJ1ORITE/Hxxx/zajzzzDOy/9ioqKgI3333Ha8WCA8Px5EjR3g1Q2xsLFpbWzFv3jxMnDiRNwMA3n33XZt5+7vN4sWLsX79el4NSLzw3EJSUpLNcb9x44bsuFpYu3Yt/Pz8eDVSUlIkfxXQkeYdN24cr2YQzXfuh9h6nS7PrFmz6PXXX+fVNlmxYgUFBQWJ5ODBg7yrwLp160T+lqwMOslydIV169aJxuNeiY+PD/35z3/mT0kgLy9PeJI/MDBQGIeVK1fyrgxStRw9lcDAQOaZSin+bwK6t7A3bdcV7mdAb9u2jT8dEZa0XWf7A9bcjYC2/PcIWzh1VH7ddRITE+Hh4SG7MFAqlXYvkiwLM3v9e5Mnn3xSmMPbM+WwB7PZbPf/POltnJ2dmd1HKYgIJpMJLi4uvEkWSxtrsrKyMG/ePEZnD35+frh48aJdx5f9p0G9zbVr19CnT59u/3u4B4ULFy7gp59+AjrejTd8+HDexYEMtbW1zH+TnTNnjuQa5fPPP4dWqxU+u7i4IDQ0lPGR454FtAMHPJ999hmT9bAwc+bMThMMcjgC2sFDxX8AwdyRauUaJFAAAAAASUVORK5CYII=;fillColor=#F2CC8F;strokeColor=#E07A5F;fontColor=#393C56;" vertex="1" parent="1">
          <mxGeometry x="376.998193359375" y="736.999618326823" width="180" height="56" as="geometry" />
        </mxCell>
        <mxCell id="2bUQal6zoLhHaRuRvt4y-4" value="" style="shape=image;verticalLabelPosition=bottom;labelBackgroundColor=default;verticalAlign=top;aspect=fixed;imageAspect=0;image=data:image/png,iVBORw0KGgoAAAANSUhEUgAAAFQAAAAxCAYAAABEUo4oAAAAAXNSR0IArs4c6QAAAARnQU1BAACxjwv8YQUAAAAJcEhZcwAADsMAAA7DAcdvqGQAAAvMSURBVHhe7ZttTJtVG8f/LVCCCC2vReXN6pCOjCgUNeI+aGYHi1M35yS47KVjc5IxxfcR3DKnS3Rmk8h8QwFd0AQGviVuZNjNwbLhZNIFCGWiTMJacaRI2SxVej0fXO+n59x3oYWyR5/sl1wfzv+6zjnsus99zrlPz2RERLhKwJDzwlVmx9WEBpirCQ0wsv/HOXRkZAQnT54UyjqdDmq1momZKyQTarVa8ddffwEAwsLCEBMTw4f8ozly5AjuvfdeoVxTU4OHH34YERERTJy/WCwWTE5OAgCuueYaREdH8yEASZCSkkIACAAtW7aMd//jMRqNwt/vtp07d/JhfqNWq4X2CgsLeTcRETFz6O+//464uDgMDg56ynNOdXU14uLikJKSwrv+sTQ2NuLuu+/mZXZRIiJcuHABLpfLU55T9u7di9dffx0XLlzA0NAQFi1ahKGhIT7sH8fExARGR0d5+b9zaH9/P/bu3Yt9+/YJzsWLF6O4uBgPPPCAZx189tlnOH78OKPNlMOHD+PMmTOMZjAY8OSTTyIzM5PRec6fP489e/YI5YKCAly6dAmVlZVoaGgQdIPBgKSkJIyPjwsaAGzevBmpqamMJsXY2BhefvllvPPOO7h06RIAICsrCyUlJVi7di0b7H73jx49Kpp3duzYQUREdrudPv74Y8Huu+8+UWygraGhwWNmkqazs5Ops3HjRiosLBS1VVpaSg8++KBIf+mll6i3t5dvVsT58+dFdb3NoSAi+u233+jDDz8UVdqxYweNjo7S119/LfJNZddeey3Nnz9fKN94442UmZlJycnJolgAFBMTQ5mZmYIpFIoZJXQmtm/fPr5ZEf4kVA4AdXV1WL9+PTt0L2M0GrFkyRJenpK77roLRqNRKL/99tswmUx47bXXmDg3jz76KEwmk2DJycl8yL8HuVxOMplM9AQAkEwm8+oDQDqdjiYmJkS6Xq8nIqLJyUmanJwkl8tFREQul4u6u7tF8cXFxcxT9qwzFbMdoa2trT7149cIdblckNjbA/h71ffmcyOTyXgJJ06cQFZWFnQ6HXQ6HbKzs5GVlYXs7GysWLGCD0d9fT0MBoNQlsvlku36wmOPPYbTp0+LrKioiA+FTCabcT/ekFVXV1NLSws++eQT3oeHHnpItMJ7Ehsbi7y8PCgUCt7lN7m5uWhra+PlKTGZTLj11lsZrbS0lFn5AaCiogI1NTUwmUyM3tbWhtzcXEaTwmKx4Prrr2e0wsJC7N69G+Xl5YwevG7dOoyNjUkmdGJiAnFxcbj//vt5l8Cff/7JS8DlT7MNGzYwWl9fHw4ePMhoAJCZmYlHHnmEl2fEDz/8gIqKCkarqqpCd3c3owFAQ0MDvv/+e14WMTY2xkswm8146623UFNTwzp6e3tp8+bNojnCbQsXLqSTJ0/yU4WA0+kU1YmKipL8ZP3mm28oJydHFM/Pob4y2zl0TmzdunVikTONRsP/WwSkEupelKTo6ekRxc9FQmUyGalUKpLL5SLfVKZSqSgoKEik86ZQKCgiIkIoR0RE/N0fO17/f4iKioLNZkNiYiLv8kpoaChsNhvS0tJ4l4gVK1bgxIkTQtloNMJms83NAXNraytSU1MlbdGiRXx4QFm/fj0GBgbQ2dkJADh+/DgGBgZQUlLCh+LAgQMYGBgQrK+vDwDQ0tLC6N999x1fFQCQlpYmxAifyZ5fL+Hh4fT5559TfHw8M7z9feX9tUC+8qWlpXwYERGVl5eLYtva2vgwSfzZh8ouBwAAVCoVbDYbUlNTce7cOeFJREVFMU94yZIluOOOO4DLq/xst03FxcXMoYyvSG2b7rzzTuj1ekbD5UPn1tZWRnNvmzo6OvDll18iKCgI27ZtY2Iwxbaprq6O0dwIWQ8PD6fGxkaKi4sTPRFPKyoqosbGRjIajZIjND4+npYvXy5pUgcreXl5dPToUf5hT4vUCPXH3CP0/fffJwAUHBxMjY2NNDY2xvTjzwhlEuqvLViwgMxmM6OpVCpas2YN34/Ajz/+SBqNRvRJm52dTf39/dTf309Op5OvJkmgE+q25uZmstvtQj9XLKFS9txzz/F9SBIaGiqq67azZ8/y4ZLMVUIB0Keffir0409CA77KV1RUIDIyclqbmJjgq86ad999F2NjY5L2/PPP8+FTYjAYsH37dl6eFvmxY8fAW0JCAh8HADh06BCOHTuG5cuX8y4Bp9MJu90+rc0Fe/bsQW1tLSIiIkQ21cK5dOlSvPfee4z2xx9/zOihBy9cuJDXEBoaypRjY2Oxfft23HPPPVAoFKivr2f8AFBWVobrrrtOKNvtdpSVlTExAKBWq4UDhTfeeIPZTfhDe3s73nzzTUbr6+tDdXU1AAi7km3btsFms6G9vZ2J9SQhIUG0W5gx/BxA3M/IkNiHSn37d3V1MTFWq1UUo9FoqLy8XIi5/fbbGX9wcDAVFRXRr7/+yrQ1Pj5OVVVVjBkMBlH7bktPTxfioqOjRX63ee5D29vbRf4XXniByM851KeE3nDDDXTq1CnBVq5cKerAl4QWFBQwMXxCw8PDGb8bq9VKOp2OgoODRW3OxuYioaJFSeo4bmhoCDk5OYJJvfIAMDk5icnJSRCRcPMkEKjVapw6dQoxMTEICQmZ0oKCgvjqPiGTyRASEgIACA4OZtry9E0Hk9DR0VEoFIoZz2urV6/G1q1bcfjwYb8OJXzFarXC6XROabt37+ar+UROTo6wWJ45cwZOpxOvvvoqcHmOdTqdvt2PysjIILelp6eLhravdtNNN5FSqaTY2FjRlOE2pVIp9JWRkUFhYWGM39sr7ytlZWWUkJAg6teb8d/yLpeLurq6yOFwMPrw8DBlZGQwU463Vx58J1IWHx9PdXV1gun1elFMIGy2CV2zZo2ozamMT6g3/JlDmcMRb2g0GvT39wvlkpISVFZWMjEGgwGxsbFC+eLFi6IDD61Wi6VLlwrl/fv3w2KxCOXw8HDR7Q5fqa2tRWVlJTo6Ohh906ZNiIyMRGtrK3N+iQD8puT1cCQ5OZn0er1g/KsYiG3TvHnzaNeuXUyMr6v8dDQ3N5NGo2HaCgkJIb1eT8PDw0RX8PhOrlarsXr1ajQ3NwsWHx/PJ33WGAwGbN26lZcDwuLFi/HTTz8JZYVCAY1Gg+bmZsTFxTGxc43carVi586dvP6vJjc3F729vbx8RRDtQwPBt99+K7o5t2vXLjzxxBOMNlu6u7tFc9vGjRtx4MABRruSBCyhmzZtQn5+PvLz8/Hss89ieHiY8dvtdnzxxRdCTH5+PsxmMxPjDy0tLXj88ceZRe2ZZ55BaWkpBgcHsXLlSib+ShHMCzPFl1sfFouFScBMqKqqQn9/P7q6upg7qlu2bMHatWuRnp6OI0eO4KuvvsKLL74o+PmfP3gGBwdFuxI3Fy9e5CWvTJvQxMTEKW+OuMnPz4dSqeRlr9TX1/t9U7qpqQkVFRXCLRCVSoW8vDwAwNNPP42UlBSYzWYYjUY4HA6vt/2kcDqd+Pnnn71+VvsMv+yTD/9pwZdt03RkZmaSVqsllUoltOFt2+R0Oqmnp4eUSqUQq1QqJf+22tpa0mq1lJaWJvobPe2WW26hjo4Opu7ExARptVrSarUUGRkpquNp3rZN/7OEutmwYYPQhreE/vLLL6L+pvrdiohoZGREVMfTxsfH+SoMBQUFojqe5i2hAVuU5pLExEQ4HA5ER0ejubkZDocDH3zwAR/GEB0dDYfDgaSkJN7lE/v378crr7zCy8DlHctHH33Ey4C3//hlMpmE4/+oqCjMmzeP8Z87dw5VVVVoampCbW0tAGDBggUICwtj4nxhYGBA2BHI5XLodDo+ROD06dO4+eabERkZCQA4e/YsVq1aNeVpfGdnJ7Zs2YL58+czd1B1Oh3k8qnHk8ViQX19PZ566ikAwMGDBxEdHY2kpCTm1wlPJBPqC2azGT09PVi2bBnvumKMjIygqalJdG2Sx/31d9ttt/GuaRkcHMShQ4cAAKtWrZp20Mw4oVeR5j8YRoNduxzoDQAAAABJRU5ErkJggg==;" vertex="1" parent="1">
          <mxGeometry x="362.00188802083346" y="915.0048193359376" width="84" height="49" as="geometry" />
        </mxCell>
        <mxCell id="2bUQal6zoLhHaRuRvt4y-6" value="" style="shape=image;verticalLabelPosition=bottom;labelBackgroundColor=default;verticalAlign=top;aspect=fixed;imageAspect=0;image=data:image/png,iVBORw0KGgoAAAANSUhEUgAAAHAAAAA3CAYAAADUvc6fAAAAAXNSR0IArs4c6QAAAARnQU1BAACxjwv8YQUAAAAJcEhZcwAADsMAAA7DAcdvqGQAAA44SURBVHhe7Zx9UJTV+8avBRYQAylAWBhRYQzfksQ100Fo0iAwTchARZYwJ0EyI5KXcAIdMclAmDEhQWygZMSX8KWE0EgjzcY0RGWaKBQQ0+FFIIJZhfv3D/v8OOdZYHdZRObLZ+b6Y+/rPuc5y83znLNnD0iIiDDKiMWAD4wyshgt4AhntIAjnCeugDU1NUhJSeHDo/SBZKgWMVVVVfjjjz+E16+88gqMjY2ZHHWcO3cOS5YswaFDhwAAcrkctra2fJpe+fnnnzFhwgQ4Ojry1pMPDQGNjY0UExNDAASVl5dTZ2cnn8rQ1tZGR44cYdplZ2dTS0sLn6o36urqaPbs2bRz505qbm7mbb1x9+5dqq2tpdraWmpoaOBtnRmSAgYEBDBFUKmkpIRPZUhPTxe1AUCJiYl8qt4wNTUVrhMeHs7besPR0VG4jr+/P2/rzBM3Bw4nBw4cgI2NjV4epV988QVsbGwE1dXVCd6pU6cwd+5cJl9X9F7A0NBQnDt3jg/rzNatWxEcHMyHh4TOzk40NDSgsbGRt/rl77//xuLFixmlpqaioaFBUHd3t5CvVCrR3NzM9KEz/C05WFxcXESPQAC0detWunXrFp/OoO4R+s033/BpeqX3IxQATZo0idLT0/k0IiJqbm6mqKgokRQKhWjcA8nS0pKioqIGXBcMhN4K+OjRI8rNzSWZTMYM1MzMjIKDg6m1tZVvwnDhwgVas2YN09bPz48uX77Mp+qV3gV89tlnadu2bXwKXbt2jXJzcyktLU1UCG3l6upKwcHBgjo6OvjLaYXeCtjR0SEaLABycHDgU9Wydu1aUdvq6mo+TaCqqorKy8upvLyc/vzzT97WGE0WMdu3bxeNbSBZW1vTrFmzaMaMGUw8IiJiwCeRNuh9DnxcrF27Fq6urnB1dcXKlSt5e9hZs2YNysvL8dNPPzHxzz//HB988AETGxR8RXVF3R3o4+NDXV1dQo6XlxcZGBiolUQiEbVXeVu3bmWuZWlpKcqVSqVMjqZocgd2d3fTiRMnRNf87LPPqKuri65evcrEc3JyqLu7m4iImpqaRO2euI8RFRUVmD9/Ph+GRCKBgcH/X6K7u7tPqdsQUnmZmZlwc3MT1NbWxqeqba8thw8fRmhoKDo7O5nrZWRkQCKR8OnYvXs3EhMTmfeInvctkUhw+fJlvPTSS4ynd/iK6sLFixdFv2VLliyh77//nskrKiqinJwckSZOnMi0HTNmDOXk5JC1tTVt3LiRXn/9dVH/vIyMjJhr8URGRlJoaKhIhoaGTD/jx4+n4OBgJhYfH081NTWUkpIiuq5CoaDy8nImduDAASIiKi0tFeX7+fnRDz/8wA9PZwa9F1pRUYGcnBykpaUx8bi4OOzYsYOJ9cWcOXNw5coV4fW4cePw4MEDbNu2DX5+frhz5w6KioqYNjwGBgZITU3lwwIODg6or6/nwxrh5eWFiIgIuLm5YcKECYynUCgQFRUFV1dXIbZ69Wq88MILqKqqwp49e4T40qVLERERAW9vb7S0tODLL7/Ehg0bIJVKhRyt4SuqLZmZmaLfMgAUFBREpaWldOHCBb6JCDc3N6btuHHj+JRBY29vTwDIycmJpk+fLhrvQHrttdeotrZWFPfy8qLs7GxRXJ2SkpKotLSUSktL6euvvyYA9N1331FpaSnV1dXxQ9aIQRWwvb2dUlNTRQNVSSqV0rRp0/hmDM3NzeTq6iq0MTIyIkdHRz5t0EydOpUsLS0pNTWVjh49SpaWlqLFkImJiRC3tLQkAwMDwfP29qbr16+L3qO+tGfPHn7IGjGoAoaFhYkG0lu+vr58ExH8HOTp6cmnDCn9rUKnTJkiek9DJV0LqJdV6HBSUFCASZMmwdnZmbf+J9B5ERMTE4OCggLcunWLtwRsbW3x4osv8mGGEydOMB8BrKys4O7uzuSsXLlS7Yf1rKws7N27F7///jskEgmWLVsGAIiMjISnpyefrpYxY8ags7MTABAeHo69e/cK3tmzZ/Hxxx/DwcEBQUFBaGxsxNtvv428vDzs2rUL165d69VT/2RlZcHGxoYPC8yaNQuTJ0/mwwOicwEXLFiAixcv8mGBhQsXYuLEifjqq694S2s8PT3VFqSoqAi//vorH4afnx/CwsLg5eXFWyJ6F1Aul2P9+vUICQnB9u3bAQBHjhyBlZUV1q9fj6VLlyItLQ1dXV3Iy8tDdXU111vfbNq0CeHh4XBxceGtQaFTAY8fP46YmBjmyARPXFwcVqxYgaSkJN4CALS0tODs2bN8GNbW1vDw8GBilZWVqKysZGL9IZfLsXHjRigUCt4S0buAAODi4oKEhASsXr2aiSkUCkRGRuL06dN466231G4mDERsbCzmzp0LBwcHzJs3j7d1g58UNcHMzEyYfC0sLMjBwUE0KcfFxfHNGCoqKph8GxsbcnJyopUrV/KplJaWRk5OThqrsLCQ70KEUqmkv/76i4yNjUVj5xUfH0/t7e1UVlYm8tRJ9V5UH114eXt70+3bt/kh6cSgC7h+/Xq1OzHaFnD//v18ypBSWVkpGnNfio+Pp5MnT4rifam/nRiVnJ2d+SHphFar0KqqKlhYWOC///4DevYC+R0YTTh06NCAi5uh5OjRo5DL5XxYwMzMDK2trYJMTU0REBDAp2HHjh1obW3FhQsXeAvoWQfU1NTwYQBAdXU1LCwsBO3bt49P0QiNC1haWopVq1YJz/6MjAwEBgbC1NSUTx2Qhw8for29nQ8PKX5+fvDw8ICHhwe2bNnS5/VnzpyJkpISmJubw9zcHLt27UJ2djY6OjqEnFOnTuH8+fNQKBQwNzfH2LFjmT5UGBoaQiaT4fz586Kjkd3d3WhraxP08OFDxtcUIz7QFxMmTEBISAhCQkIAAMuXL4ednR2fNiCFhYXIzc3lwzh48CCuXr3KhwEAvr6+8PHxQWNjIxITExlv/vz5zIKDp62tDR999BFKSkr6LFpvLCwssGDBAgDAtm3bkJ+fj9u3bzM5hYWF2Lx5MxwcHJi4OoyMjLBw4UKYmJjwln7gn6m6oM0c+OGHH4pyB9KyZcsoKyuLPvnkE5Hn7u7e77mZe/fuidr0J2dnZ8rKyqKsrCwaP368yFcpKipKyEtISGC80NBQwVPJyspK1AcACgkJoXXr1un8DcUTUcDp06eTXC7vU32t5lSaM2cOfxmBpqYmksvlJJVKmTampqYkl8uZ/c7hUFtbGz9krXjsBYyOjiapVMroypUrfBoD/xvOq78CqnB0dCSJREKGhoYklUpp5syZRGpOpamkGltfBTYyMurTQ89pAlUfvAeAJBIJSaXSQRdQ40WMvkhOToZSqWQ0e/ZsPk3v3L59G6+++iq2b98OpVKJiooKPkXAzMxMGJu/vz9vAwCKi4vx/vvv82GB9957D0qlEvfu3eMtAICTkxOUSiWeeuop3tKKx15AfePv74+CggI+rJbMzEysW7eODzM8//zzuHz5Mh9mKCsrw7x587B582Zcv34dx44dY/ykpCTExMQAPYui69evQyaTMTn64okv4O7du0U/IBUKhQLR0dFwcnLiLbU4OjrC2tqaDwssXrwYycnJmDZtGm8xTJ06FWPHjoWdnR2ampqQnZ3N+Pb29sIK3dDQEDNmzBjct+49tLS0ICgoSNDJkyeB5ORkun//Pv9o1Qpt5kAiohs3blBycjIlJycLp7fUkZmZKTpXqdKqVauorKyMb6I1/X0fSES0YsUK0bUTEhKE8QcGBor8gIAAwVeJ//JYl52Yu3fvMn34+PgQAFBmZibduXOHz9cYbQuYl5cn5J0+fZqKi4upuLiYKisrmbxJkyaJ+gVAL7/8Ml27do3J1RVdCqgP6VLApqYm8vLyIhMTE6EfAwAICwvDsWPHdNph1wVTU1PY2trC1tYWPj4+8Pb2hre3N1JSUnDv3j1BXV1dTDtDQ0PY2tqisLAQzz33HOP9L/D000+juLgYU6ZMYf5YVqhmVFQUX3SN0PYO7A1/pKI/TZ48mW8+aEbSHdgbb29vguoOHE7q6uoGvJuioqJQX1+PS5cu8dawcOPGDdTX1ws6c+YM46elpTF+fX29Rttu2nDw4EHU19cP/yrUzs4OmZmZ/X57bm5uDplM1u+RBH3w7bffavR3C7a2tpDJZIL4cY0bN47xZTIZDA0NmZzB8swzz0Amkw1/AdFzPGPTpk3YuXMn3nnnHd7GmTNnEBsbi08//ZS3tKaoqAixsbGCHj16JHj29vZwc3Nj8kcCwnN5OOZAnps3b9Ibb7wh6g89x97z8/NJqVTyzTTixx9/7PeYvqZz4L59+yg/P1/Qzp07GT8sLIzx8/PzydramskZ7ByoAtOmTSOVkpOTeV8j9FlAIqLW1lZhTObm5qK+df2vFT2fm/qUpgXUh/RVQIObN29CpejoaP7uHBbMzc2FMS1atIi3R+nFEzEH9kdBQQG2bNnCxGxsbFBWVsbENOH48ePo7OxEXl4eb/VJfn6+6Evk+vp6dHZ2iqT6E7SsrCwh9s8//zBt9c2QFDApKQkbNmzgwzohlUpFKzilUsn81wdNkUqlMDExga+vr2gDPDY2Vu0TyMjICEZG7MEFY2NjmJiYiPTLL7/g0qVLWL58uRCzsrLCpUuXdDq9oAk6nQvluX//Po4fPy68XrRokcYbzJrw22+/Yf/+/cjIyAAApKen48033xzUDv+DBw9w+PBh4bW7u3ufm9hJSUkoKCjAu+++CwAIDg7W+ixQfn4+/v33X+G1hYUFAgMDmRxd0EsBHwfl5eXCya2UlBStf4CDoaioCNXV1QgPD+etYWfEFHAU9QzJHDjK42O0gCOc0QKOcEYLOML5P9AIIuDkyCDUAAAAAElFTkSuQmCC;" vertex="1" parent="1">
          <mxGeometry x="467.00188802083323" y="911.5081526692708" width="112" height="55" as="geometry" />
        </mxCell>
        <mxCell id="2bUQal6zoLhHaRuRvt4y-8" value="" style="shape=image;verticalLabelPosition=bottom;labelBackgroundColor=default;verticalAlign=top;aspect=fixed;imageAspect=0;image=data:image/png,iVBORw0KGgoAAAANSUhEUgAAAGIAAAA7CAYAAACAJF8xAAAAAXNSR0IArs4c6QAAAARnQU1BAACxjwv8YQUAAAAJcEhZcwAADsMAAA7DAcdvqGQAAA0PSURBVHhe7Zt9UFTVG8e/sGy8BMSryGubYYg6qDQThUUwJLUJTQIF04AGMU7kVowNbSY6TkMRFkNoWDgDjqEDaZPD+FJQmiGKgkBo4QBDiYqsvMirxkvs8/uHvbP33N1ld1mQ38x+Zp4/7vf5nnN3ebjn3HvuWQsiIph54FiygpkHg7kQCwRzIRYI5kIsECxmM1nfunULAODi4gI7Ozs2rZPBwUGMjo4CACwsLODt7c1a5px79+5hYGCAO/bw8IBYLOZ51BkeHsbw8DB37O3tDQsLC57HaMhIlEolASAAdPDgQTY9I+np6Vx7GxsbNj0vFBcXc58BAF25coW18Ni2bRvP/++//7IWozFqaLp69SoWLVrEHW/ZsgU7d+7keQxhfHwc7u7uaG9vZ1PzSlhYGI4ePcrK84JRhZiamkJfXx93PDo6inv37vE8hkBE6Ovrw6ZNm3D27Fk2PW8MDg5ifHyclQEA27dvR1lZGSubDKMKYQri4uIQHx/P02pra3Hnzh2etlD4448/cP36dVY2GSYpxNq1a/Hkk0+ysk4iIyOxbt06VtbI0aNHUVpaitLSUtTU1LBpkxETE4MlS5awsgBHR0ckJydDJBKxKeNhJw19aGpq4k1a2dnZdPv2bdZG//zzDzU3N2uNHTt28PoBQLt37xb4XFxcuPz69euptbWVPZVRGDJZv/zyy5wvICCATc8akxQCAG3dupW1UXR0tMBnili5ciV7KqNYSIUwydC0UImLi4NIJIJIJMLjjz/OpvXG19cXP/30EyubFJMV4tChQwgODubFuXPnWBuPuLg4NDY24uLFi2xKwL59+9DY2IjGxkYcOXKETWuEiKBUKqFUKnHr1i0EBwdzD5GaSEhIwKlTp1gZ0yMHK+tFcXEx728yODjIWgAAVqygTn9/PzIzM1kZ/f39rISenh709PSwMmJjYxEdHY07d+5g27ZtvJyrqyvWrFmDqakplJSUAAC+/fZb1NXV8XwA4O/vjzVr1rCy3kxMTKCpqQlTU1NsiuPatWu4e/cuKwtQKBRITU1lZY00NzejqamJO37nnXeQlZWF5cuX83w654jOzk7B+GxoZGdnExFRW1ubIBcaGkrl5eW8cyYkJAh8AKiqqorn04cNGzYI+hkcHOTy7BwBgEpLS7n8/fv36auvvqJHHnlE4JtN/Prrr9w5VOgcmqytrREeHs6LZcuWsTYOZ2dngd/Pzw8AYGtri/DwcN4t34ULF5Cfn88d19XVabyqQkND4ezszMpzzujoKDIyMjA0NMRpixYtEnzH8PBwPPHEE7y2Kh599FGBV+N3YSszEwcOHBBUGABZW1vTK6+8wtoF2NnZ8dqFhIRwuWXLlvFylpaW5OTkRL29vbw+9EX9ilD1NTQ0xOVnuiJ6enoE+ddff53Lq1NcXEwODg4C/8cff8xaNaLzijCELVu2oKKigpVnxeLFizEwMAA3Nzc2ZTB+fn4YGBiAo6MjmzIJqampqKysZGW9MbgQ8fHxOHnyJE/Ly8tDVlYWTzOE8fFxSCQSdHR0sCmO5ORkSCQSSCQSREVFsWmTU1NTY/BqAUthYaHGmx1NGFwIe3t7eHl58TQ3Nzdu3BsZGcGrr76qNdhFtba2NsTHx6OzsxOTk5O83N27d7l2lZWV6OzsRGdnJy5evMjpuoo3G8bGxnDz5k1WNgh3d3c4OTmxsmbYsUof2Cdr1fuIjo4OyszMFIyTcxmXL19mPx6H+hwhkUjYtNY5oqamhpKSkgQ5ALRixQras2cP2xXV1dVRamoqz3vkyBHWphWdzxH60tDQAHt7e1y9ehVffPEFAOCll17S+NauoqJC5738U089BR8fH1bWit7/cQZQW1uLQ4cOccdSqRRNTU1QKBT466+/UFhYiHfffZfXpqGhgXsWMgq2MvrAXhGa4ubNm2wzIiJasWIF2djYCPwAyNfXl44fP842MRpjroi8vDzuTZxIJKIlS5aQQqGg1NRUcnJyImhZa/rmm28EfRlyRRg8R8yWP//8E8HBwawMAKiqqkJ0dDQrzysffPABcnJygOl38R0dHfDw8EBxcTHS09NZu8kwuBCHDx/Gs88+y8oAgOeff557wa5tM8DixYtx6dIlnmZtbY3h4WGtD0UPgoiICPz999+sDABob2+Ho6MjxsbG2BRHY2MjNmzYwMpa0asQ69evR1hYGMLCwvDJJ59ofC2akJCAvXv3wsHBAQ4ODlp3N4yMjPDmiOXLl+P06dNwcHCApeXMH+eXX37Bpk2bWNmkJCYmYs+ePbC3t2dTAAClUomRkRFW5vHwww/DysqAKZgdq9Tp7+8nmUxG1tbWgvFPPZKTk+ncuXNscx49PT0kk8nIysqK19bDw4MyMjJYu4Cvv/6aZDIZrVu3jlxcXEgmk5FMJqPOzk7WymHMHLFx40aqqalhrUQ6dnGUlZVReHg4L2foyyut+5pu3LiB8vJyyOVyNiXg4MGDCA4O1rmc3dPTg+3bt7MyAEAsFmPfvn2szCM/Px8tLS2sjMuXL2t98IqNjcWxY8eA6WednJwcbNy4EQ899BAAoKSkBG+99RbPn5mZiaeffprT1Pnxxx9RWFiIM2fOANNL83Fxcdi5cyeKiop43tbWVsOGWrYyKn7//XcKCgoS/Mdoil27dlFGRoZAn4/Q9zlCFb/99hvV19dTfX294FVtWVkZ9fX1sd3w+P7773ltSkpKKDY2VnAeQ68IrYWg6WVwsVgsCHZ4EYlEAo96iEQiwQfF9EKcus/CwkLgUYWVlZWgX7FYTA0NDezH5tBUiJlCfdFPE2whNIVYLKa2tja2qU50zo5+fn6YmJgQRH19Pc9XUlIi8KhHeXk5z68iLS2N5wsICGAtHKdOnRL0OzExofVW+EFha2uLiYkJLF26lE3phq2MPrAPdN7e3pSbm8vaiIiooKCAfHx8BP81O3bsoK6uLp6XXQZXRXV1NY2MjPC8MxEVFaVxWXqmmOmKGBoaohMnTgjaAaBVq1ZRS0sL20QvdF4R+hITE4MXXniBlYHpSVq1WVkdT09PweKhNgICArTeSmqjvb1d6y1mVlYWDh8+jM2bN7OpGXF0dIS/vz8rAwDs7OwQGBjIynphkkI888wzsxoi/vvvP+zevVvwLtze3h4ffvihxjUrY3n//feRkpKCN954AyEhIbxcSkqK8F3yPGGSQhjDtWvXUFVVhaqqKvz888+Qy+Xo7e3l8m5uboiJiUFubq7BVwMAPPfcc4iKihLEp59+qnU3X0hICDw9PVmZh0KhwPnz51kZmN47q/pO9+/fZ9O6YccqfWDnCF3b8nNycsjDw4NcXV0FY6qukEqlbFcmR9MDna45YmRkhPbv3y9ooykuXLhg0Lb9Ob8iPvroIygUCtTW1rKp/zs+++wzveeV0NBQHD9+nJW1MueFUPHYY4/h9u3bsLW1ZVMaOXPmDLy8vODl5cX7CcCDIikpCXv37mVlnDhxAsnJyawMANi8eTO8vLy05tWZt0JYWVnB09NT62Igy/j4OLq7u9Hd3Y2EhARIpVL88MMPrG1eSEpKQlVVlWCXYEVFBdauXQu5XA6ZTMbLYXrO6O7uRmVlJaRSKaRSKe+nXzzYsUoTu3btIrlczkVKSgpvPNQ1R6jo7e0luVxOYrFYMJ6qYuvWrTqXVSIiIkgul1N+fj7bvVHMNEeMjo6SXC4ne3t7nsfd3Z0+//xzmpyc5LyNjY28n6Npi/fee4/kcjlVV1dzbWmmJQ4Vzs7Ogg7VQ1chmpubqaysjPLz8wXtAJCrqyslJiZSYmIidXV1UUFBAa1atUrgUw8fHx8qKysjpVLJns4gdBWiu7ubioqKeLmgoCBKTEzUuPOdpnczqr7LTA+TX375Ja+tXoUICQmhwMBA3u8U1ENViNHRUWppaeHF22+/LfBLJBIKDAykwMBASkhIYE9H+/fvp8DAQFq6dKmgrXqo/0cag6ZC5ObmUktLiyDn6+tLRUVFbBdakUql5OjoKOgfAPn5+dGBAwd4fr0KoULbCquqEKdPnxbkNMX58+fZrjXS1dUlaKsec1EIbXHy5Em2+Yy89tprgn6gZe/rrAtRX19Pb775JllbW+sc//39/WlsbIzGxsb0HlKUSiXXJjIyUtDnXBfCzc2NO//U1BTbfEYmJydpbGyMjh07Rt7e3jr70vpiSBM3btyAQqHgaStXrkR6ejq+++47no7pHYCq99s2NjYICgpiLXrT2tqK7Oxs3jaXyclJw15HMqheDFlaWmp8zrGysprV0o2KwcFBXL9+HatXr2ZTHHoXIi8vD6tXr0ZkZCSbwtmzZzX+RvrFF1/kdoObgkuXLuHKlSvccVpamt63w5pobW1FdXU1LCwskJaWxqbnFb0LUVBQgKCgIERERLApMyZA70KYmVvm7cnajG7MhVggmAuxQDAXYoFgLsQCwVyIBYK5EAsEcyEWCOZCLBD+BwOHBxI/URvOAAAAAElFTkSuQmCC;" vertex="1" parent="1">
          <mxGeometry x="601.00072265625" y="910.0029720052082" width="98" height="59" as="geometry" />
        </mxCell>
        <mxCell id="2bUQal6zoLhHaRuRvt4y-10" value="" style="shape=image;verticalLabelPosition=bottom;labelBackgroundColor=default;verticalAlign=top;aspect=fixed;imageAspect=0;image=data:image/png,iVBORw0KGgoAAAANSUhEUgAAAFgAAAA2CAYAAABDa14eAAAAAXNSR0IArs4c6QAAAARnQU1BAACxjwv8YQUAAAAJcEhZcwAADsMAAA7DAcdvqGQAAAxBSURBVHhe7Zt9UFRVH8e/vGwI7CJviy+0MkVQTZETjZMNb5nN1jBgNTRIzhDjADXVxqBhmQUNVFQqDhPSC6iYBDhBAqXOIIGrmJmMUYhMSAIDK++xxJu4C57nj+A+e865i3cRyOeJz8z3j/3+fufey4+755x77lkrQgjBIvOGNWssMrcsFnieWSzwPLNY4HnGytwgZzAYMDY2BmdnZzYkMDAwQH2WyWRQKBSUx2LaZsmSJXBwcKDic821a9dw7do1ynNycoKtrS3lSeX69esYHR2lPEdHR9jZ2VGeADFDcXExueeee1hbYHx8nACg9PTTT7NpHDKZTMjXaDRseM7ZsWMHd51nz55l0ySTn5/PHe/AgQNsmoBogXft2kXc3d2Jra0tUalURKVSkdraWiFeV1dH7rzzTuokr776Kunt7aWOY0pTUxNRqVTEyspKaCOXy0lERASbOmfExMQQJycn6jqbmprI+Pg4myqJDz74gLi5uVlUYNE++K+//kJ/fz8mJibQ0dGBjo4OJCYm4vjx48BU96HT6ag2Tk5OUCqVlGeK0WhER0cHTHukkZER9Pb2UnlzSX9/P4aGhihPpVKZ/zrfhMHBQfz555+sPSOiBRbjxx9/RFtbG2vfFnz77bdITk7GwYMHBW/Xrl1oamqi8qbJyclBcnIykpOTkZOTw4bnFMk9/eOPPw5vb2/WFvj9999RUlJCeUFBQVi2bBna29tRWVlJxQDA29sbISEhrG0x5eXlyM/Ph5+fH+RyOQDg448/5gZhACgtLUVGRgYuX74MAPD19YVSqcRzzz3Hpkpi/fr18PLyYu3/wvYZhBDy7rvvcv3M4cOHSXNzM2lubiYlJSVcXEx5eXlkYGCAFBQUcDEPDw+SmprKnnpWREdHc8e3RPb29uwhRUlKSuLaXrhwgU2jkNxFREVFwcfHBz4+Pnj++efZsCibN2/Gvn37WBsAkJ6ejpSUFNb+v8P61KlTkMvllHbu3MnmLRibNm2CXC5HVFQUG/qfxPrGjRsYHR2lZDAY2LxZ89lnnyE1NZW1RYmMjMSJEycwOjqKyspKBAYGIjAwECMjI2zqTSktLcWZM2cEFRUVsSkAgAceeABVVVWsPWdY6XQ6Ul5eLhhffPEFLl68SCVJQa1Ww8fHB9nZ2YKn0WjQ1NQkOsCtW7cO999/P+V9/fXX3LQKAPR6/YxPlC+++CLy8/MpT6fTwdPTU/g8ODiIwsJCJCYmwmg0Cv7atWvx008/CZ9nYtu2bdi9ezflXbhwAf7+/tBqtSguLhb8tLQ0uLm58YPc3r17ycMPP8x15hs2bCDx8fEkPj6ePPvss1x8+/btpKGhQciJj48nly5dItu2beNyLVVmZibp7OxkL1VAbJDT6XRUzuDgIMnJySF33HEHlbd27VoqzxzHjh0jarWaO88777xDcnJyyMaNGym/tbWVEEIIN0177bXX0N3djbq6Osp/8803ERAQgN7eXhw7dgxlZWVUvLOzE6Ojo4iLixO8kZERdHV1UXmzIT8/H0FBQVixYgUbMktdXR2uXr0qfG5vb8dLL71E5WDqGs+fP8/aHKmpqaJ5H374IWsBAH777TcsXboUGB8fJ6zefvtt7j918uRJMj4+TrKzs7mYpZLJZMTOzo7Y2tpyMQDExsaG2NnZCdLr9ewNRSF2B98OKi0tJWDNhdD0ukZWVhYXA0BSUlLYGs7I7VxgyfPguaK+vh4PPvggawt8+umn0Gg0rD0rPv/8czQ2NqKxsVFYR5FKcHCw0LaxsRGPPfYYm8KxZs0aqs369esBturzLYPBINx5YnfwkSNHqLtTCmJ3cHZ2Nrl69aqQMzQ0RIqKirhBzsfHhxQVFXE6deoUdY7q6moSFhbGnSc9PV1oU1VVRbUhhBDb7du3U/+FkpIS/PHHHwAAFxcXvPzyy1R8momJCW7KcvfddyMyMhIAkJWVxS1MLyQ6nQ6HDh1CSEgIXFxchEGZfb/g5uYmPNTk5uYiKCgI9913H5WDqWnl8ePHcfToUcp/6qmn4O/vT3mm2H700UeUcenSJaHA9vb2ZhdjjEYjV2BXV1eo1WqsW7cOeXl5ogU+ceIEAgMD/x5h55HpvysmJgaenp5IT09nUzgyMjLQ2tqK4OBgKJVKPPLII2yK5bC3dHh4OPc1sEQeHh6ks7OTuLu7c7FpzTTIzVUXIVWm8+B7771X8ENDQ6lzkPle7JFKb28vVq5cif7+fjb0r2TOCyyVrVu3YseOHZT3888/IzQ0lPJmS11dHbq7uwWdPXuWTZmRqqoqLF++HMuXL7f4LYYpkgpcXl6OiooKSmxnbwmvv/46vvnmGwwPD1O+u7v7rF/nsCiVSixbtkzQ6tWrUVFRIfn4169fR09PD3p6enDjxg02LBlJBT558iR8fX2hVqsFPfnkk2waR1xcHHbu3IkXXniB8s+dO0c9xi4EDg4OUKvVsLY2/ycnJSXhoYceYu1bgluLECMzMxNLly6Fr6+v4JmuSJlib28vvH5JSEiAn58fCgsLzS4XWkpLSwvOnTtHea2trdRnTC1Xurq6sjYmJydZSyAuLg6VlZWor69nQ7OHHfVuZRYhl8tJSEgIe0jRV0ZiunLlCtuU48CBA1y7WxG7mhYZGcnlTG9H+MdnEYGBgdBqtaz9r2ZOC2yOqKgo/Prrr6wtoFAoYDAYcNddd7GhBaewsBDvv/8+a88aqsBhYWGoqakxtQAAp0+fRm1tLSVLpj3W1tY33Qsmk8lgZWXF2hzh4eHctYjJw8ODbSoJGxsbxMbGIjMzE0qlErW1tXBxcWHTpGPaX6hUKq6PAUBiYmJIbGwspc2bN3N5M+1NGxgYIPv27SM2NjZcO4VCwabPmuHhYRIbG0scHR2584iJ7YOnaW9vJ4WFhZQ3mz5YUoGlaqYCT2O6+W9ac1ngvr4+7vgAiLOzM9FoNNwiv7kCizGbAi9IHwwAY2NjqKmpEZ20T05OoqamBuPj42zIIgYHB7kpHKYeYEJDQ5GVlQWZTMaG5xVJBVYoFKKSitFoRENDA4KDg0XnoWNjYwgODsbly5cxMTHBhiVhMBhQU1OD8PBwyrezs0NoaCgKCgoof6GQVOCuri4MDQ1R6uvrY9PMUlxcjEcffZS1OVavXo3vv/+etSWRlZWFDRs2sDZSUlLw1VdfsfaCIanAt8Inn3yCLVu2sLZZXnnlFXh7e5td6BfjjTfeENZ/bzdmVeDm5mZs3LiRtTnS0tKwf/9+i/YA9/T0oKWlBT09PWzILH19fdyKV25uLo4cOYKIiAjKX2ioyWliYiK+/PJLYWunq6srNBoNZDIZ8vLy0NHRAUy9jjHdDSRGRkYGDh06hCtXrrAhxMXFYeXKlcDUfgXTfb3TNDU1IS0tDZjak7FkyRIqTggRHghM1w4cHByQlJSEyMhIODk5mbSQzpkzZ1BdXc3aFs39BdhphelahOlvNAICArgpCit/f39SVlZGysrKiLOzMxcHQMLDw0lzc7Nw3NOnT3M5rAoKCkhfX5/QZnBwcHrPASWlUkmio6MJIYRUVFQI12Iq9qWn2DQtPT2dO7Y53WyaJrnAERERRKFQcCeQIkdHR+Ll5UW8vLyI0Wikznf+/HmyatUqrg0rrVZLyNSDxNGjR6mYu7s78fLyIps2bRKO6+npyR1DTPNdYMl9cElJCaKjo1lbEs888wza2trQ1tbGPTKvWbMGDQ0NlDcTxcXFCAsLo7w9e/agra3tH5uKzYTkAgPA7t27odfr8cMPP7Ahs6SmpiI3N5e1KeRyOfR6PfR6vVC80NBQwdPr9QgICGCbzUhjYyP0ej22bt3Khm7Kli1boNfr0djYyIYsh72lzXURpgwNDZHKykru62Kq0tJSotVqSXt7O9t8RhoaGohWqyUXL15kQ4QQQrq6ukhOTg6xsrIiWq2WaLVa0t3dzaYJtLS0kPfee4+7PkztGP3ll1/YJgI6nY5rY6rq6moyPDzMNqPgfun53XffCW8InJ2dERMTYxoWmJycxN69e1lbID4+ft5+xdnb24vDhw8jISGBDYnS3NwsunXKz88PTzzxBGsDU9+A/fv3Y9WqVcDURvLp2dWKFSvw1ltvISEh4aYrgFyBF/mb+vp6HDx4EHv27AGmusfpLsPT01PymvFigecZiwa5RSxnscDzzGKB55nFAs8z/wGIkPB2gaxc5AAAAABJRU5ErkJggg==;" vertex="1" parent="1">
          <mxGeometry x="253.00405598958326" y="912.5059440104168" width="88" height="54" as="geometry" />
        </mxCell>
        <mxCell id="2bUQal6zoLhHaRuRvt4y-12" value="" style="shape=image;verticalLabelPosition=bottom;labelBackgroundColor=default;verticalAlign=top;aspect=fixed;imageAspect=0;image=data:image/png,iVBORw0KGgoAAAANSUhEUgAAAZQAAABJCAYAAAAaEtDlAAAAAXNSR0IArs4c6QAAAARnQU1BAACxjwv8YQUAAAAJcEhZcwAADsMAAA7DAcdvqGQAACvaSURBVHhe7Z17WFVF9/iXICB6VLykoK9cVV4vVNYLKoZa4Q1FhTCV9E3FhETN9DVTESX1xQuleYlEME3RvOM1tfKCNxAVQ1IJQV4tLoJJiHIT1u+P79nz2zOzzw0OhDaf51l/nDVrZs8+Z5+99p5Zs6YBIiIIBAKBQFBDTFiFQCAQCATVQTgUgUAgEBgF4VAEAoFAYBSEQxEIBAKBURAORSAQCARGQTgUgUAgEBgF4VAEAoFAYBSEQxEIBAKBURAORSAQCARGQTgUgUAgEBgF4VAEAoFAYBSEQxEIBAKBURAORSAQCARGQTgUgUAgEBgF4VAEAoFAYBQaiP1QBIKakZ+fD6mpqQAA4OHhAQ0bNmRNBIK/BcKhCGodRIRHjx4BAIBKpQJzc3PW5LkmLi4OfHx8AACgsLAQmjdvzpoIBH8LxJCXoNYpLi6GVq1aQatWreDIkSNssUAgeEGotkNxdHSElJQUVk2YMmUK2Nragq2tLbi7u7PFtUr//v3B1tYWVq5cyRZp5T//+Q/pc/fu3dniWqNTp07kuCEhIWyxQdjZ2ZG2PvvsM7b4LycwMBBsbW0hICCALaoXHDhwgHx/tra2cOPGDdZEK927d4fExERWbTRKSkqo/q1atYo1eeH47LPPyPna2dmxxYIaYG9vD7a2trB79262qHqgAZw5cwa9vb3R29sbGzRogB4eHnjy5EnWDCdPnozW1tYIAAgAaG9vz5oYndu3b5O+qVQqBADs1KkThoWFsaaKfPTRR9ihQwfSZysrK0REDAgIIO16e3vj5MmT2arV5v79++jt7Y0mJiYIABgcHIwpKSmsmV5kZmait7c36T8A4MyZM1mzOueXX37BIUOGUP0CABw+fDhrWusEBQWR33Hx4sVsMSIibtu2jeqnpmscEXHZsmXo7e2Nrq6uVJ2zZ8+ypkbh1q1b6OXlRR1rwYIFrJlW1qxZQ13P3t7emJeXx5rVK2bOnEmds7e3N2ZmZrJmzx2VlZXo7e2NWVlZbFGtc/fuXfRW38cBAF955RX09vbGefPmsaYGYZBDiY2NpX5YAMDo6GjWDB0dHSmbunAoly5d4voGAOjl5cWaKvLaa69R9SSHYm9vz+lDQkIwJCSkRhdCSkoKfvjhh1TbGzduZM0Ip0+fxpCQEFy1ahVbhIiI169f5869PjiUc+fOcf3q378/7tq1izWtdZydnUkfOnbsiCtWrGBNOIcCABgTE8OaISLiyJEjOVuoRYdy8eJF7liGOJQNGzbgK6+8wrVRk+u4tomJicGePXtyfb5+/TprWmeEhoaSe8CRI0fYYq0cPXqU1F2wYAECAE6ZMkWv88nPzyd1Q0JC8PLly6yJXiQnJ+OUKVO477R379747bffsuYGIRyKGk0O5cMPP0Q/Pz/s0qUL13Z8fDzbjN7s3LmTa0+bQ1myZAkCALZq1Qr37NmDe/bsoZ4snyeHEhoayppp5fLly+ScJXn69ClrphO5QwEAbNGiBe7ZswdLS0uJjZJD+fDDDzE5OZlq69ixY+jm5sbZjhgxAn/55RfK1ljU1KH06NGDqmtmZoZ+fn744MED1rTWuHr1Kl67do1Va+TNN9/kzhlq2aGUlJRw19uePXvIm2rDhg1JP4YMGcLZaRP2DVOS6dOn488//8x2hSItLY2qM2XKFNyzZw+eOnWKNdXIzz//jNOnT+eODwA4Y8YM1txgat2hNGnSBPv168eaGJXCwkLcvXs31S9ra2vs2LGj3kNUcodiaWmJPXr0oMoXLVrEnftf4VDk8tNPP5Fy1qG0bdsWly5dSrVhCFVVVZienl5jUTrPadOmcXbaROlN4Ny5c1hcXMx2WysDBw4kw6FySUxMxCdPniAiYlxcHNra2nI206dPp9pycHCgys3MzLBjx45YVFRE2RlCQUEBd+5yYa9xUDu77OxstilFWIfSokULUpadnc0dr7KykqpfE+7cuYPp6ek4evRoHDduHN6/f581UUTJoXTs2BFv3bpFbJ4+fUr1W9N1cf/+fe4cleTChQvcMUE9hJ6enk45FGPK7Nmz2S5TsA5FkldffRXv3LnDmisye/Zsrr4kz4VDGTFiBFtsdCIjI7l+GTqkIncoSg7weXMoW7ZsoeobSllZGXe8+iaGDjcgIo4ePZprBwCoeZIbN25w5bocioODA1VeHebNm8cdVx8ZOnQo25Qi2hzK8OHDuXZr4hxZzM3Nqbb79OnDmiii5FBYfvrpJ6r88OHDrAkiIrq7u3Nt1SeprkMB9UOwPtS2QzEoyuvdd9+Fy5cvs2qtHD16FLp168aqBQYwbtw4WLJkCauuNa5evQotW7Zk1QIAKCoqApVKBVlZWWxRjfD19YWIiAhWrRfHjx8HlUqlU37++WeqXmFhISk7evQoVQYAYGNjAxcvXmTVAADg6urKta9NysvLqfoJCQmcjUqlgnfffZey08X69eth6NChrLpOcXd3h+LiYiguLgZ7e3uqzNbWlpRJEhkZSdkAAGzatAn++9//smqKjh07QnFxMTRq1IgtgpKSElCpVJCens4WEby9vWHt2rWsmhAZGQkqlQrat2/PFumNRofy8OFDeOONN4js2LEDTp06BYGBgaypVp49ewZPnz5l1QAA8Ouvv1LHkGTmzJmsqUYiIiK4P+LOnTvhrbfeIp/z8/Op9nfu3EnZsyQnJ8PgwYMp3aRJk7gfPDg4GPbu3UvpaoOysjLuD3ns2DF4/fXXKZ2xcHZ2VrzB1CcOHDhQrXD0sLAwg69hievXr8PAgQPhyZMnIF8P3LdvX9izZw9lCwBw5MgRvcOjly5dCmPGjGHVelFZWQlPnjzRKVVVVVQ9RCRllZWVVBkAKNaRePr0Kde+NmHR1OfS0lLWVCsVFRV61/n666/JAlRj4efnB19//TU0adIEmjRpAiYm9C3VxMSElEliYWFB2QAANGrUSOeCX6mtU6dOwfnz52HkyJFU+RPmumQpLS2FiooKVk2oqKiAJ0+eaLxf60PD4OBgVgegvmAuXLhAPldVVUGTJk0gOTmZstOHhw8fgtJx8vPzqWNIWFpasipFIiIiYMuWLZCRkQEAAGZmZrBmzRoYPHgwWFlZAQDAL7/8AqtWraKOg4hQXl4O77//PtHJKSoq4tYS2NrawujRo6GiogIWLVoEAAA3btyAnJwcyq6ucHNzq7UV2SqVCt544w3YsGEDW2QwGRkZ8MUXX1C6IUOGwLBhwyidoXh6eoJKpWLVOnF2dq72WoY2bdrAqFGjqGvDy8sLpk2bpujcHzx4AIcPH4bp06fDunXr2GKKrl27wtSpU6FXr15sESEzMxM+//xzSjd48GBwcHBQfOqtKZ9//jk4OTmxagAACAkJIdkPQP2fmTdvHmUj58svv6RS0ihdF6D+Ty1cuLBW3shdXFxg5syZ4OnpyRbB5s2b4erVqwAA0Lx5c+7hEQAgJycHli5dSulsbGzAxcWF0tU2vXv3BgCA7du3s0UamTt3Lty+fZtVw/r166FBgwawfft2uHTpEoD6bUe6XwcGBsLLL7/M1NJCQEAAN5ZmiOiaQ6mOdOnSRa/wtd69e5M6bdq0weDgYNYEjx49yrUPADhu3DjKTlOUl8SVK1cwKioKly1bRtmNGTOmWmGily9fxlGjRnF9ioqKwoMHD1K2fn5+XP8LCgpIeVpaGi5cuJAq1zSHcvz4cYyKiqKkvLycNTMKqampOGfOHK7vuqK8CgoKqP79+uuvrIlOzp07h1FRURgXF0fpf/zxR/Tx8eH6pG0OpW/fvrhz507Mzs7GL7/8kirTtJ7lwoUL+O9//xsBAE1MTMi5pKens6Z6oxTl5eXlhStXrsQPPvhAp7Rq1Yqqa2FhwdnIpaSkhO2CRnJzc7m+gfp/9MEHH2BFRQVln56ejhMnTuTs7ezscO7cucRO1xzKF198wZVrmkPRxpgxY0h9GxsbthhRfT2zx2Ln1th7n1KE6+bNm7l2tm3bxprpJCgoiGsnLS2NNUNExNatW1N2LVu2xA8++ACrqqoQEXHLli2Kc0zs/0cXUFZWhm5ubjrFxsaGOxjo6VAsLCzQzc0NTU1NufpycXR0RFtbW2zWrBkOHDiQbZYiKSkJu3fvTur26tWLNcHff/9d8YIDdbhfYmIiETakVKVSUeWTJ0/m2pAkICCAPbRGbt++TdrctWsX1xYA4Msvv0xsSkpKKIdibm6Obm5uWFhYSNrcunUr14aSQ0lOTkYPDw/O9vTp0zonYLOzs/H27dusWivr1q3jjgXq70vThZ+fn4/ffvstZb9o0SL83//+x5pqRVrj0717d+p39PT05PoDALhu3Tpis2PHDqosJCQEExMT8euvv+bqTZ48mWpfknfffZezBQAMCwvDe/fusd3VCyWHAuoJbum4FRUVeOvWLa4/iYmJ2LlzZ1KnWbNm+Pbbb7OHqDaaHEqXLl1YU8Ljx485e29vb8rmww8/pBZJw1/oUDIyMtDNzY0sBgQAHDVqFN68eZPYsPc+GxsbTExMxGfPniEiYlZWFoaEhHB9ro5DWb58OVknZ2Jigm5ubtz/pKysDBMTE9HKyoo6nouLC2WHiNzDEgDgqlWrMDExUe+HOj5kQgPz5s1TDJfTx6FIXrpNmzZoYWGhUWJjY3H16tU4ZMgQtkkOS0tL0r6pqSl6eHhQ5RUVFfjZZ59x/TWWmJubk34HBgZSx9ZEWVkZDho0iGtLm/zyyy/o6+tLPv/jH//A0tJSSqKjo7l6mzZt4uzkmQBYOX/+PNtdiuXLl+OAAQO4NrXJ6tWrueNIMmzYMM6+tLQUN23axNkCAM6aNYvtklbYRaP1Sf7zn/+w3dULTQ5FLr///rviUz0r/fv3Z5uvEbXlUMrLy7l1E3Lq0qFIsPfBN954g1y/bPSfJHl5eVhaWorBwcFcGVTToSAiRkVFoYWFBTZv3pwtQkTE3377jTuWiYkJvv7666wprlu3Ds3MzDh7UEfrlpWVsVU49HYoWM2wYdDw2ldT5A4lKCiILdb4hGgs+fPPP9lD6kTTW159EH0cClunLkU4FP0cir7yvDgUJecopz44FGNIdR2KLpQcyvjx41kzwpkzZzh7SRwdHVlzDo1RXvWVrKws6Nq1KxXZsWvXLujatSslx48fp+oZStOmTeHmzZsapToTwoK6wd/fH7777jvy2cLCgvv9Nm7cCG3atOH0xpB//etfVH/krFixAubMmcOqq01gYGCtTMgbAy8vL5FduhYJCwuDsLAwVk04e/Ys9O/fn9LNmTMHli9fTunkuLq6cgFJEvfv3yf3VymAgcWg/VB27NgB7733HqWLjo7mQiOdnJwgMzOTfLa3t4e7d+9SNtUhISEBli5danBIa8uWLXVGLM2fP5/0sUuXLrBkyRJ45513WDPCpEmToKSkBAAA3nzzTZgyZQprQvjzzz8hKCgIDh48SOpUh9dee03xZhQfH8/dVIKCgqBfv36UThuenp7QunVrVk24desWt46htsjKyuIihmbNmsVFOCnx/vvvw7Fjx6CgoIDoGjVqxH3vOTk5cPnyZRgxYgSlrykBAQFw+PBhyM/PJzoTExOIjY0FAIBevXpxaxX05dKlS1yodNeuXWHAgAFao8NA7WTlf/X+/fvD6dOnKZuakJeXB9bW1pRu7NixsGPHDgAAGD9+PDx79gwAAAYOHAgTJ06E4uJiaNq0KVXH29sbDh06RD6/9dZbXD/l57F69WqYNWsWVX748GGDowjHjh1LHkJsbGwgOzubNSGYmZmRc5GwtLSEzZs3w0cffQQPHjygygAAYmJioHHjxrB161bFh91t27bBuHHjWLVGQkNDyfKHsWPHcpnF4+LiYPXq1RAfH090CxYsgHHjxsE///lPypaloqIC9u3bBzNmzKCuYzlvv/02vPTSS/y9j31l0UZycjKyUWF1OeSlaRJbl7Rv355tikPXSnmWZs2aEXtXV1fFSXCJvLw8rk9KMnjwYBw4cCCnl2TYsGFs04gGTMrXlIyMDAwPD6ckISGBNasx165d487Hw8MDd+7cyZpyNG7cmKrXrl07DAkJYc1qTGRkJPU9REZGIiJi8+bNybFffvll/PTTT2ucwVVC05CXPivl5RPJoB6+WL16NWtWLTIzM0miQ7mMHTsWCwoKMDw8nArI6d27N27btq3eD3mtXbuW/L6HDh0ituyQV4cOHXDRokWIiLhixQoq+KF58+b46aefkoi5Q4cOKebzUhryWr9+Pfd/k0SeHsjW1hYjIiKoumw0KgDgDz/8QNnoYvny5dipUyeuHbm4urpieHg4SbTK7VWamZkJv/76K/n81ltvQUpKCrRq1QratGkDrq6uEBMTQ9WpLkVFRdxKXHt7e40e1NraGjw8PODcuXNskSKOjo7QuXNnaNWqFVuklT/++IN6injttdegqKgI7ty5Q3TyJ5SkpCRYtmwZWFtbw6BBg4geAKCgoABOnTpF6TTh4+MD7dq1AxMTE6isrIQffviBlDk5OSmudQAAaNeuHfTp00dxTY8xSU9P594cJk2aRK1HMAbSuiI5586dA3Nzc4MX/3Xo0AHCwsIUnwprwuLFiyEvL498btu2Ldjb25OFY126dIEJEybAxx9/LKtVO+Tn5xt8foWFhXDhwgWDFhFr4tdff4Vly5axasjJyYF9+/Zx18ylS5fAxMSEW5gH6rU78nN5+PAhVQ7qzAASSmsr9KWqqgpOnjwJoO6rRFlZGRw/fhxCQ0OhsLAQQD0K0aJFC3jjjTeIHaj3Hxo1ahQsXrwYAAA++eQTSEhIIPfQFi1aQHh4OLH39vaGgoICOHbsGNFpIjw8HH7//XdWzXHv3j1YuHAhzJ49G0C9AFd+D5dISkqCZ8+eQbt27fRaWzJ37lwoKyuDbdu2Ufc+OUlJSWSB+ieffAJQVVWF2dnZRObPn095oJSUFOzXrx+GhITghg0bOA+lzxtKhw4dSPtSpMDTp0/xxIkTXHtBQUH48OFDtknCnTt30MbGhhM2xt7KygrDw8PZ6opkZ2eji4sL1xdJvvnmG5w1axanZ6Vhw4Zs04rn2LRpUy6MD2S5vMrKyvDOnTtUma6nbGPn8lLi+PHjXJ/rUvQJc2XfUHr27ImlpaVoY2PDPVnWlrRq1Urxf1FTlN5QVCoVtmjRgtPrEmNOylfnuujTp4/iG4oxRNsbSmFhIbkXZWVlcXW1ibOzM2ZnZ1PXEbsOBRGpdU5KozP6rkPp0aMHdY976aWXuHqSSLm8Hjx4QO2LZGpqijY2NmTPJQBAPz8/zM/PZw9HqKysJN9RSUkJrlq1SvEaa9asGdrY2OCgQYNIXSgtLeUMDRGlPw7rUORy5swZRA1fqiSenp5skzph09cbkhxS/mXXRPR1KOHh4VqTQyplOxUOpfoORYJda1RbUp2Frvqg5FAWLFiAR44c4fS65O/qUKZOncrZ10Rq06Gw6JMcUj7cBrLhfnZho9I6FIlHjx4RO2lh4/79+7ljrlu3jq2KJubm5pCbmwudOnVi32ZqBR8fH7C2tjbKq7bE1q1b9UoQ17VrV7C2tuZEU74ibdy5cwdyc3Mp0ef1dMeOHTB9+nQYOXIknD9/ni1WJDo6GubOncuq6wULFy7kvge5HDx4kK0Cs2bN4uzk8uOPP7JVICgoSDFfFsvdu3eptpSGFmbMmMEdU0lMTU3h5MmTkJubqzikUx9Ys2YNbN26les7Kw0aNKDqXbx4EZydnSmdRFZWFvlvaIr40UVISAjk5uYqDk9PnDgRDh8+zKoJ7du3h9zcXJI+6XnCzc2Nuubu378P1tbWUFRURNlVBycnJ8jNzeWSQ77++utw+/ZtsLa2poaLPT094fr165StoUyYMAE+//xz8PLy4q6pSZMmsebQsEGDBtC2bVv45ptvFJO4SURHR+v1h9aFscfb165dCxs3boQ//vgDzM3NyYUqHyMsKCiA9957DzIyMrgki7r49ttvoW3btqwa7OzsqNxE+mJlZQVNmjQBANB7bqd58+ZGC1NetGgRdO7cmYvWqy4qlUrx+5FQylqsq45ShE3jxo2hRYsWrJqjTZs2rIoQExMDT548AQcHB63Hl/j++++hZ8+e0KxZMy4aSY67uzvJ7wbqnFGG4O/vrzhXwCKN58uRkvnpcz5yysvLFSN4zp8/D/PnzyfzQzNmzIAFCxbA8OHDWVMAANi9ezesXLmSVZPfWKVSwYkTJ2Do0KFk3lH6LSsrK+HEiRNsVWjUqBG0bdsW9u/fDx9//DEXXcjWuX79Onng2r59O/Ts2ZMqlzNt2jTFyL7w8HA4c+YMpdu1a5eiU/Py8iLJNA8ePAhpaWmkLDU1FcrKysjnyspKyMvLAx8fH3K/0OfBUwlTU1No27YtHD58GGbMmAG3bt0CUD/cBgQEUHN6Y8aMgTlz5miN3GSJi4uDyMhIan64sLAQIiMj4cmTJxAaGkrZK6F32PDZs2fh8uXLkJubSyV10ydsuEWLFtzEnDbs7Oz0SmO9YcMGiI6OJl7Y0tKSZMqMjY0lFyKbMnro0KGKIbW7d++GK1euULq7d++SMM/U1FT49ttvqfIRI0ZAnz59KJ2crKwsyhH7+fmBg4MDgHpCsUuXLqRs48aNMGXKFLh48SJp85NPPoFJkyZpfJoEdbr59evXw5YtW4huy5YtXPLL8PBw2Lx5M1hbW0Pv3r2hdevW/zeRpicnTpzgsjCvWLFCaxvnz58HDw8PShcaGqo1fj4vLw+2bt1KvZXpGzZsDNhrHADg2rVr8NNPP5HPn376KXGWHTt2rFEW2/bt2ys6UX1xcnICX19fVk0RERHBZaJt1KgRTJ8+ndKlp6dDXFwcpfP09ITAwEDw8/Oj9AAAK1euVHx7Xr58OaW3sLAgD3PBwcGwfv16mbVmdIUNg3pSeteuXQDqN1ltzl8T8rBhiby8PMUHFKWw4ZpiaNhw7969ISEhgVUDAMB7770HgYGB1P/upZdeokLpXVxcICUlhXzes2cPbNy4kbrG5fj4+MD+/ftZNQ87BqYLNkGaPnMoSuOINeW7777jQtrMzc0xNjYWY2NjsVevXtyYnyRsiJ2EUrK6u3fvIqr3gJ85cyZXvnbtWrYZvbl16xbVlnwOpWHDhujv7485OTmI6oSF0rmxopQkLjAwkLNjAxecnJyYHmlHaaxcaV92OdXZAviPP/7A7du3U3UMXSlfE9jkkEqSmZnJVuO4c+cOfv/996yaIzg4GP39/bWKq6sr14e6FKWdT8+fP0+F28pl+fLllK18gy0piWtFRQV1fSptgasrbBjVq/Tl7fz222+siU7k52FpaYn+/v4as2HURnCHPnMocuT3t9atW1PXyqVLl1hzag7FwcGBJODcsWMHxsbGYr9+/bg+SeLi4qJ3iDn/6+jgr3YoZWVlmJqaihYWFtyJ6xJnZ2fs1q0bfvPNN2yziDocitKOjVBLDuXatWv4r3/9i7JV2rGxptKhQwdMTU3Ve6tXJYcya9YsTE1N1ShsokdQb1vL2sll7969XJ364FAaN26M3bp1w27duum8aeXk5OCSJUuwa9eu5LxKZXvXG8pXX33F9cdY0rlzZ3JemkTpIcDf359rSxLJoZSWlmJqaiqVI0pyKOykfFBQEJfcUB+Hwu7YuGHDBnzw4AFrphWldSiaYB2K/Lpgd6Y0MzPjvst27dqRckl36NAhLCgowKysLPZwisgdilJiXBa5Q/H29ibXpLaApE6dOmG3bt3wq6++YpvTCP/r6CD1L3Yo2iIddIm2UDmsRw5FidpwKJI8fvyYPZwiSg6lrqQ+OJS+ffuyphphExoCAN64cYM105vadCj63sRY9HEoN2/e5Mo0ORSoxsJGVHAoAIBLlixhzbRSE4ciT0yrz71PivIyMTGh9BEREXpHuNbEoegr0r3PEJ67XF76smPHDigvL6dE1wTVpk2buLHzTp06gbm5udE3/Nm9e7dBk7fz58/nxrZPnjwJH330EaWTiImJ4c6/vLwchg0bBosXL6Z0xprw/zuTlZUF5ubmRJRS/fTo0YOkIjGE4OBgbq5DYt68eVBeXq4xtZGLiwv5nV999VWqzMrKCsrLy8HW1pbS68Mrr7zCzTm8KOTk5IC5uTmXQuXmzZtgbm4Oz549g4SEBPK9yhcup6WlKS7YlPP+++9DeXk5t9Pkxx9/bPACVWPTt29fcl7V2Yiu3jiUsWPHgqurK5EBAwawJlpxcXGBpKQkIoMGDQIzMzNKdGFqagqmpqaU7tmzZ1BRUcGFFp85cwaSkpJg9OjRlF5fqqqqDJrYMzExgX79+lHn2KtXL5g9ezYkJSVxNypTU1Pu/M3MzGD16tUwZcoUg74XXQwaNIjqV9euXVkTjr59+1J1NGUBMBQPDw/qOqqOaFqNn5yczNlKMnz4cKioqCDCXi+gvpaU9NqYOHEi7NmzR3GL3vDwcAgODgYzMzONEYcNGjQgvzMbOvz48WNwd3cHNzc3KueTPlTnXOqKL774ggsUMhQp48G0adPIb/zuu+9CRUUFJCQkQPfu3cn3Kv/u/fz84OzZs7KWeI4ePQru7u7g7u4Orq6uZBW6iYkJd/+pC7Zt20b+h1FRURqvF70ICAhAfeT777/HhIQEfOedd6jXopoOeVVVVWFAQAC2bNmSqtO6dWvWFFG90jU6OpoTdpdDTXz++ecYEBCg2G/UsMkM26/o6Oga73KobWFjdfirFja+8847eOrUKcouLi6O+31Yke+QiIh45MgRqpzdF0XfIS92YWN9E0MmX4OCgrBNmzZcGwCAy5YtowID7t+/z9n07t0b9+3bR2wOHDiAffr04ewAAAcMGIABAQG4YcMGYq+Nrl27IqjzzykFq0hDXo8ePcLo6GhqmKi2h7y0LWzUhFJwwXvvvYft27fn9Ozuk3LYe59KpcKAgAB88uQJovp/37dvX8rG19dXcSJdG7qGvI4ePYoBAQFkqwRNQ15RUVHU7q+auHbtGn766aesmqOhvnm5CgoKwMrKCvbt28cW6aSoqEhjmCAiKuYGKy0thfXr18OECROoIZnmzZsb9PSRlZVFpdCOioqCtLQ0KCsrM6gdUOcGGz9+vGK9Bw8ewN69e2Hq1Kls0QuNm5sbvPnmm5ROKc5fF+zCVESk1h+wOZQ0ERQUBOUGrjWSk5aWBteuXYOxY8fChg0bSIjqyy+/DH379mXNDUZb+Deow3aldRYxMTHkSZmltLSUZN22t7fnhrNAHc4sDyceOXIkHDx4UDHnm5Q37sqVK9Sbh6+vL7Rr105m+X/4+/tDbm4ueHp6QqNGjWDNmjWsCYB6WC0gIID7X+Tk5HBv1bpo3bo19/Z4/fp1bijYUGJjYxVzX0kZolk2bNig8U3izz//pD4XFxdDTEwMODs7g6WlJezbt497G9y/fz+oVCqorKzUugRBH7Zv3w6FhYVw8uRJOHz4MLRv3x5WrVpF2Tg7O5MRoMmTJ+v1JmJiYgJlZWXkPq7pugAPDw/UR/7xj39w3g30fEOpieiKptHErVu3MD4+HleuXMm16eDgoDhpl5aWhjNmzODsJfHx8cGSkhKMj48nW3qiOqJn06ZNiqlXNPGivKHoCht+3jhx4gT6+flhfHw8FQGjlGLD2Ny9excXL17Mfce6RHoTYfWDBg3C+Ph4SoYMGcLZaZP169eTusnJyWyXETVcF0FBQdRx2SivlJQUxT3Mtb2hdOzYEePj46nymmQbrqysxPj4eLSzs+PakIuDg0OdpO2ZPXs220WNyN9QunXrRr5n+a6sLVu2RB8fH0TmDWXgwIF49epVtkmdZGRkkDbY30GCf3/UQEhICLVLoiT6OBQTExNs2rRpteT3339nm+coLy/HoqIiSuT5dCRRqVTYtGlTLjJLqjNu3Diujlx8fHzw7t272LRpU2oP9q1bt2KTJk1eaIdSVlbG5fNp3Lix3vHpzxNKUV616VAeP36MRUVFOHv2bO64jRs3Jv+Fv3o4z9XVle06ogaHok2MOeS1fv167nvR5VCk+0V+fj7Xtlyk+8WaNWtw165d3L1JSdgwXEPuffPnz2e7qhFt6+xAvSbPz8+P2MsdipmZmeIwmS6M6lCwnm0BLCcyMpLrl5JoChtmLwJNInl7JZKSkl5oh6K0BfDx48dZsxeCunYo8nUJrMj3m1FKDlmXUh8dClZjDmXjxo1cm0qSl5fHVtVJXd37dDkU1jnJHYq2LYC1oY9DqTdRXobSrVs3cHJyAicnJ1i4cCFbDAAAU6dOhYyMDCJsLqi0tDRwcnLSO1rl5MmT5JjFxcVEv3v3bp2hgi8aiYmJRplTEPA4OjqSa1Y+N9KjRw/qepYkOjqaqm9sFi9eDBkZGXDgwAG26Lli1KhR4OTkBAsWLGCLKNq0aQMZGRl659rTxm+//QZOTk5GSQ5ZE65cuULmZw4cOABeXl6siVF47hxKdnY2+Pr6QlpaGmRmZkJmZiaVo0Zi9uzZMHXqVHB0dCQin0g7e/YsBAcHUznHQD05vH//fti2bRulB3UiPumYkhOKjo6GFStWVDvh219FQkIC+Pr6gq+vLxcPrw92dnZgaWnJqgXVIDo6Gvbv30/k66+/JteshYUFsWvUqBF1PUsydOhQiIqKotoE9Ta/8nb1la+++gpAPSm9f/9+GD9+PDg6OkL79u3ZQwAAwKuvvgqbN2+mdOPHj6+TzcX0xd/fH06fPq3xfgHqieb9+/fDli1buPuFvnz11VdUcspnz55R9wtjMGbMGMUgAonZs2eDv78/pVu0aBGkp6cDqAMFfvvtN6pcF4mJiVxghSLsK4s26sOQlz4r5YODgzE1NZWtiqtWrcKwsDAMCwtDX19frt7w4cPx2LFjiIhYUlKCoaGhGBoaqjghN3/+fAwLC8OePXsSnSFDXjdu3OD2ZqiLIa+dO3diWFgYjh49mtguWLAA7927x5oS9u3bhwMGDKDaz83NZc2eK9LT08m1wEpwcDB1rlDLQ17GQClsuLpDG3/88QeGhoYalComNzeXOvby5csxJSWFu8ZBx5CXs7Mz9Vs4ODhwNuzvNWHCBKpcachr6dKl1IQ1K++8847BW+RqQmn+9tGjR5RNdnY2dx5sKL0mlOayJdF072PDhrXth8Jy+vRpLqx60qRJmJiYyJo+f3MoSg7F3t4eR4wYQUQeGZabm4txcXEYFxdH7QMvl+HDh+OIESPwxx9/pI4lsWzZMkWnwoohDgW1pF55+PAh6bO+smbNGqqtGTNmcDZxcXEakwyeP3+e7R6ienzaw8OD2FlYWOCIESO4P8jzxpUrV3DQoEHc96BJXnSHkpCQwF0r2tZbsCg5FETEe/fu4YgRI6h5Sm0OxRii5FAQkYsqMzExIfcMTXMCFy9exPT0dFatFX0cytWrVzmbkSNH4oULFyg7OY8fP8a4uDguXxiod2Zk731yWIdiZ2dHfufCwkJil5+fj0ePHkVExJMnT2JcXBz18CkXpQ22njuHkpGRgXZ2dpSwE1AShYWFirujAQA2adKE1NcnOeIXX3yhdQtOMKJDUdqxsbZl7969VOSaRJcuXYiNpaWlxonZ55Hc3FxyDTRq1Ij7TuRSVw6luLgYs7KyDBZ2x1JQL5iTylH9VCx9lrJYo9oZsW+gAKB3QsunT59iUlISqde2bVuMjIykbDp16kS+64ULFyL+BQ7F19eXum907tyZNUFExGfPnpHvycPDA+fNm8d939pE6UElJSWFstG0y2afPn00jhZI974GDRpQdSwsLNDZ2Zk1p2AdilyOHDlC+vXdd99hs2bNMCsrS+NSEUleCIdiCMuWLeP6K8m4ceNYc52wYbOsPM8OBdRrDljkDkW+d/SLhtINVS515VC+++477tjGkKqqKuzRowf5LN8CWNs6jHPnzlH9U4KN8tInZT/+BQ5FX7Kzs7k261I0ZQmRYIe89AkB1uZQqit/K4cyceJE7qnzzp07+OjRI3z06BFJhWAI5eXlmJyczH0HcrGyssKbN2+yVRXR5FAqKipIP+tS5E+jZWVlaGVlhaampggA+NFHH+mdlfh55PHjx/jo0SPFkNJ169bh06dP2Sq1Qm05FPlvCeqHHysrK7SystIaNq9SqTAqKortJgV7veqbloh1KHPmzOGuSX3k4MGDVDt/J4cyceJExZEFlsLCQq17nlRHlByK3js2gjq9yLFjx2DixIlEp8+Ojfb29hqzodYWN2/ehPz8fEhISICIiAjYu3cvuLu71zgZYmlpKSQmJoKXlxfZHZIlNTUVunXrxqo5NO3Y+Fdz+/ZtCAwMJCkiFi5cCBMmTABHR0fW9IVj+/btMH78eEoXExOjuH92bfDgwQOytau+XLp0yaAdUQ1l3bp1MG3aNFZdYyorK+H8+fPks52dHdkd1RBOnToFb7/9Nvl8+PBhGDZsGGVjCOXl5XDp0iVWXWeYmZmBu7s7qyacO3eORI3Z2NhA586dWRNFBgwYAD/++COrrhZr164FX19fLvLPIIcCAPDw4UPYvn07+ezp6cndPOUOxcXFBT7++GPKCdUlWVlZ8NNPP3FOr6ZERkZCeXk57Nu3D86dO0eVGepQIiIioGHDhvD2229D9+7dWbM6Jy8vj0pNPnjwYJ05qF4Ubt++ze1ZrnSN1yfu3r0Lhw4dYtVGo3///vDKK6+w6nrD/fv3Yfv27TB//nxYvHgx/Pvf/ybbbAv+PwcOHIB79+6xao6SkhLygBIQEKC4zYafnx/nTKA6DkUf5s6dC/n5+QDqxVia9nJ4EYiNjeX2YV6yZInil82Sk5MDCxYsgKioKI3pxwUCgW6Ki4thxowZEBERAS1btmSLBQbw9OlT8kY6ffp06NGjB2uikVpxKAKBQCD4+/HcrZQXCAQCQf1EOBSBQCAQGAXhUAQCgUBgFIRDEQgEAoFREA5FIBAIBEZBOBSBQCAQGAXhUAQCgUBgFIRDEQgEAoFREA5FIBAIBEZBOBSBQCAQGAXhUAQCgUBgFP4frpUbTw5tPf0AAAAASUVORK5CYII=;" vertex="1" parent="1">
          <mxGeometry x="676.9966666666666" y="735.00072265625" width="404" height="73" as="geometry" />
        </mxCell>
      </root>
    </mxGraphModel>
  </diagram>
</mxfile>
